%TF.GenerationSoftware,KiCad,Pcbnew,8.0.3-8.0.3-0~ubuntu24.04.1*%
%TF.CreationDate,2024-07-14T13:10:06-07:00*%
%TF.ProjectId,interconnect,696e7465-7263-46f6-9e6e-6563742e6b69,rev?*%
%TF.SameCoordinates,Original*%
%TF.FileFunction,Profile,NP*%
%FSLAX46Y46*%
G04 Gerber Fmt 4.6, Leading zero omitted, Abs format (unit mm)*
G04 Created by KiCad (PCBNEW 8.0.3-8.0.3-0~ubuntu24.04.1) date 2024-07-14 13:10:06*
%MOMM*%
%LPD*%
G01*
G04 APERTURE LIST*
%TA.AperFunction,Profile*%
%ADD10C,0.050000*%
%TD*%
G04 APERTURE END LIST*
D10*
X104770000Y-55370000D02*
X104770000Y-144720000D01*
X145770000Y-146710000D02*
X145770000Y-149710000D01*
X146770000Y-145710000D02*
X145770000Y-146710000D01*
X113770000Y-146720000D02*
X112770000Y-145720000D01*
X113770000Y-50370000D02*
X113770000Y-53370000D01*
X144760000Y-150720000D02*
X114770000Y-150720000D01*
X114770000Y-150720000D02*
X113770000Y-149720000D01*
X114770000Y-49370000D02*
X113770000Y-50370000D01*
X146770000Y-54370000D02*
X153770000Y-54370000D01*
X112770000Y-54370000D02*
X113770000Y-53370000D01*
X144770000Y-49370000D02*
X114770000Y-49370000D01*
X145770000Y-50370000D02*
X144770000Y-49370000D01*
X145770000Y-149710000D02*
X144760000Y-150720000D01*
X153770000Y-145710000D02*
X154770000Y-144710000D01*
X145770000Y-53370000D02*
X146770000Y-54370000D01*
X145770000Y-53370000D02*
X145770000Y-50370000D01*
X113770000Y-146720000D02*
X113770000Y-149720000D01*
X104770000Y-144720000D02*
X105770000Y-145720000D01*
X146770000Y-145710000D02*
X153770000Y-145710000D01*
X154770000Y-144710000D02*
X154770000Y-55370000D01*
X105770000Y-54370000D02*
X112770000Y-54370000D01*
X112770000Y-145720000D02*
X105770000Y-145720000D01*
X153770000Y-54370000D02*
X154770000Y-55370000D01*
X104770000Y-55370000D02*
X105770000Y-54370000D01*
M02*
