%TF.GenerationSoftware,KiCad,Pcbnew,8.0.5-8.0.5-0~ubuntu24.04.1*%
%TF.CreationDate,2024-10-05T16:37:18-07:00*%
%TF.ProjectId,interconnect,696e7465-7263-46f6-9e6e-6563742e6b69,rev?*%
%TF.SameCoordinates,Original*%
%TF.FileFunction,Copper,L1,Top*%
%TF.FilePolarity,Positive*%
%FSLAX46Y46*%
G04 Gerber Fmt 4.6, Leading zero omitted, Abs format (unit mm)*
G04 Created by KiCad (PCBNEW 8.0.5-8.0.5-0~ubuntu24.04.1) date 2024-10-05 16:37:18*
%MOMM*%
%LPD*%
G01*
G04 APERTURE LIST*
G04 Aperture macros list*
%AMRoundRect*
0 Rectangle with rounded corners*
0 $1 Rounding radius*
0 $2 $3 $4 $5 $6 $7 $8 $9 X,Y pos of 4 corners*
0 Add a 4 corners polygon primitive as box body*
4,1,4,$2,$3,$4,$5,$6,$7,$8,$9,$2,$3,0*
0 Add four circle primitives for the rounded corners*
1,1,$1+$1,$2,$3*
1,1,$1+$1,$4,$5*
1,1,$1+$1,$6,$7*
1,1,$1+$1,$8,$9*
0 Add four rect primitives between the rounded corners*
20,1,$1+$1,$2,$3,$4,$5,0*
20,1,$1+$1,$4,$5,$6,$7,0*
20,1,$1+$1,$6,$7,$8,$9,0*
20,1,$1+$1,$8,$9,$2,$3,0*%
G04 Aperture macros list end*
%TA.AperFunction,ConnectorPad*%
%ADD10RoundRect,0.500000X-3.500000X-0.500000X3.500000X-0.500000X3.500000X0.500000X-3.500000X0.500000X0*%
%TD*%
%TA.AperFunction,Conductor*%
%ADD11C,0.200000*%
%TD*%
%TA.AperFunction,Conductor*%
%ADD12C,0.600000*%
%TD*%
G04 APERTURE END LIST*
D10*
%TO.P,J2,1,Pin_1*%
%TO.N,Net-(J1-Pin_1)*%
X150390000Y-58410000D03*
%TO.P,J2,2,Pin_2*%
%TO.N,Net-(J1-Pin_2)*%
X150390000Y-62360000D03*
%TO.P,J2,3,Pin_3*%
%TO.N,Net-(J1-Pin_3)*%
X150390000Y-66330000D03*
%TO.P,J2,4,Pin_4*%
%TO.N,Net-(J1-Pin_4)*%
X150390000Y-70290000D03*
%TO.P,J2,5,Pin_5*%
%TO.N,Net-(J1-Pin_5)*%
X150390000Y-74250000D03*
%TO.P,J2,6,Pin_6*%
%TO.N,Net-(J1-Pin_6)*%
X150390000Y-78210000D03*
%TO.P,J2,7,Pin_7*%
%TO.N,Net-(J1-Pin_7)*%
X150390000Y-82160000D03*
%TO.P,J2,8,Pin_8*%
%TO.N,Net-(J1-Pin_8)*%
X150390000Y-86130000D03*
%TO.P,J2,9,Pin_9*%
%TO.N,Net-(J1-Pin_9)*%
X150390000Y-90090000D03*
%TO.P,J2,10,Pin_10*%
%TO.N,Net-(J1-Pin_10)*%
X150390000Y-94050000D03*
%TO.P,J2,11,Pin_11*%
%TO.N,Net-(J1-Pin_11)*%
X150390000Y-98010000D03*
%TO.P,J2,12,Pin_12*%
%TO.N,Net-(J1-Pin_12)*%
X150390000Y-101970000D03*
%TO.P,J2,13,Pin_13*%
%TO.N,Net-(J1-Pin_13)*%
X150390000Y-105930000D03*
%TO.P,J2,14,Pin_14*%
%TO.N,Net-(J1-Pin_14)*%
X150390000Y-109890000D03*
%TO.P,J2,15,Pin_15*%
%TO.N,Net-(J1-Pin_15)*%
X150390000Y-113850000D03*
%TO.P,J2,16,Pin_16*%
%TO.N,Net-(J1-Pin_16)*%
X150390000Y-117810000D03*
%TO.P,J2,17,Pin_17*%
%TO.N,Net-(J1-Pin_17)*%
X150390000Y-121770000D03*
%TO.P,J2,18,Pin_18*%
%TO.N,Net-(J1-Pin_18)*%
X150390000Y-125730000D03*
%TO.P,J2,19,Pin_19*%
%TO.N,Net-(J1-Pin_19)*%
X150390000Y-129690000D03*
%TO.P,J2,20,Pin_20*%
%TO.N,Net-(J1-Pin_20)*%
X150390000Y-133650000D03*
%TO.P,J2,21,Pin_21*%
%TO.N,Net-(J1-Pin_21)*%
X150390000Y-137610000D03*
%TO.P,J2,22,Pin_22*%
%TO.N,Net-(J1-Pin_22)*%
X150390000Y-141560000D03*
%TD*%
%TO.P,J1,1,Pin_1*%
%TO.N,Net-(J1-Pin_1)*%
X109180000Y-58510000D03*
%TO.P,J1,2,Pin_2*%
%TO.N,Net-(J1-Pin_2)*%
X109180000Y-62460000D03*
%TO.P,J1,3,Pin_3*%
%TO.N,Net-(J1-Pin_3)*%
X109180000Y-66430000D03*
%TO.P,J1,4,Pin_4*%
%TO.N,Net-(J1-Pin_4)*%
X109180000Y-70390000D03*
%TO.P,J1,5,Pin_5*%
%TO.N,Net-(J1-Pin_5)*%
X109180000Y-74350000D03*
%TO.P,J1,6,Pin_6*%
%TO.N,Net-(J1-Pin_6)*%
X109180000Y-78310000D03*
%TO.P,J1,7,Pin_7*%
%TO.N,Net-(J1-Pin_7)*%
X109180000Y-82260000D03*
%TO.P,J1,8,Pin_8*%
%TO.N,Net-(J1-Pin_8)*%
X109180000Y-86230000D03*
%TO.P,J1,9,Pin_9*%
%TO.N,Net-(J1-Pin_9)*%
X109180000Y-90190000D03*
%TO.P,J1,10,Pin_10*%
%TO.N,Net-(J1-Pin_10)*%
X109180000Y-94150000D03*
%TO.P,J1,11,Pin_11*%
%TO.N,Net-(J1-Pin_11)*%
X109180000Y-98110000D03*
%TO.P,J1,12,Pin_12*%
%TO.N,Net-(J1-Pin_12)*%
X109180000Y-102070000D03*
%TO.P,J1,13,Pin_13*%
%TO.N,Net-(J1-Pin_13)*%
X109180000Y-106030000D03*
%TO.P,J1,14,Pin_14*%
%TO.N,Net-(J1-Pin_14)*%
X109180000Y-109990000D03*
%TO.P,J1,15,Pin_15*%
%TO.N,Net-(J1-Pin_15)*%
X109180000Y-113950000D03*
%TO.P,J1,16,Pin_16*%
%TO.N,Net-(J1-Pin_16)*%
X109180000Y-117910000D03*
%TO.P,J1,17,Pin_17*%
%TO.N,Net-(J1-Pin_17)*%
X109180000Y-121870000D03*
%TO.P,J1,18,Pin_18*%
%TO.N,Net-(J1-Pin_18)*%
X109180000Y-125830000D03*
%TO.P,J1,19,Pin_19*%
%TO.N,Net-(J1-Pin_19)*%
X109180000Y-129790000D03*
%TO.P,J1,20,Pin_20*%
%TO.N,Net-(J1-Pin_20)*%
X109180000Y-133750000D03*
%TO.P,J1,21,Pin_21*%
%TO.N,Net-(J1-Pin_21)*%
X109180000Y-137710000D03*
%TO.P,J1,22,Pin_22*%
%TO.N,Net-(J1-Pin_22)*%
X109180000Y-141660000D03*
%TD*%
D11*
%TO.N,Net-(J1-Pin_17)*%
X109180000Y-121870000D02*
X150290000Y-121870000D01*
X150290000Y-121870000D02*
X150390000Y-121770000D01*
D12*
%TO.N,Net-(J1-Pin_1)*%
X150290000Y-58510000D02*
X150390000Y-58410000D01*
X109180000Y-58510000D02*
X150290000Y-58510000D01*
D11*
%TO.N,Net-(J1-Pin_8)*%
X109180000Y-86230000D02*
X150290000Y-86230000D01*
X150290000Y-86230000D02*
X150390000Y-86130000D01*
%TO.N,Net-(J1-Pin_11)*%
X109180000Y-98110000D02*
X150290000Y-98110000D01*
X150290000Y-98110000D02*
X150390000Y-98010000D01*
%TO.N,Net-(J1-Pin_6)*%
X150290000Y-78310000D02*
X150390000Y-78210000D01*
X109180000Y-78310000D02*
X150290000Y-78310000D01*
%TO.N,Net-(J1-Pin_14)*%
X150290000Y-109990000D02*
X150390000Y-109890000D01*
X109180000Y-109990000D02*
X150290000Y-109990000D01*
%TO.N,Net-(J1-Pin_2)*%
X109180000Y-62460000D02*
X150290000Y-62460000D01*
X150290000Y-62460000D02*
X150390000Y-62360000D01*
%TO.N,Net-(J1-Pin_19)*%
X109180000Y-129790000D02*
X150290000Y-129790000D01*
X150290000Y-129790000D02*
X150390000Y-129690000D01*
%TO.N,Net-(J1-Pin_4)*%
X150290000Y-70390000D02*
X150390000Y-70290000D01*
X109180000Y-70390000D02*
X150290000Y-70390000D01*
%TO.N,Net-(J1-Pin_15)*%
X109180000Y-113950000D02*
X150290000Y-113950000D01*
X150290000Y-113950000D02*
X150390000Y-113850000D01*
%TO.N,Net-(J1-Pin_20)*%
X150290000Y-133750000D02*
X150390000Y-133650000D01*
X109180000Y-133750000D02*
X150290000Y-133750000D01*
%TO.N,Net-(J1-Pin_22)*%
X150290000Y-141660000D02*
X150390000Y-141560000D01*
X109180000Y-141660000D02*
X150290000Y-141660000D01*
%TO.N,Net-(J1-Pin_5)*%
X109180000Y-74350000D02*
X150290000Y-74350000D01*
X150290000Y-74350000D02*
X150390000Y-74250000D01*
%TO.N,Net-(J1-Pin_13)*%
X150290000Y-106030000D02*
X150390000Y-105930000D01*
X109180000Y-106030000D02*
X150290000Y-106030000D01*
%TO.N,Net-(J1-Pin_21)*%
X150290000Y-137710000D02*
X150390000Y-137610000D01*
X109180000Y-137710000D02*
X150290000Y-137710000D01*
%TO.N,Net-(J1-Pin_16)*%
X109180000Y-117910000D02*
X150290000Y-117910000D01*
X150290000Y-117910000D02*
X150390000Y-117810000D01*
%TO.N,Net-(J1-Pin_18)*%
X109180000Y-125830000D02*
X150290000Y-125830000D01*
X150290000Y-125830000D02*
X150390000Y-125730000D01*
%TO.N,Net-(J1-Pin_7)*%
X150290000Y-82260000D02*
X150390000Y-82160000D01*
X109180000Y-82260000D02*
X150290000Y-82260000D01*
%TO.N,Net-(J1-Pin_10)*%
X150290000Y-94150000D02*
X150390000Y-94050000D01*
X109180000Y-94150000D02*
X150290000Y-94150000D01*
%TO.N,Net-(J1-Pin_9)*%
X150290000Y-90190000D02*
X150390000Y-90090000D01*
X109180000Y-90190000D02*
X150290000Y-90190000D01*
%TO.N,Net-(J1-Pin_3)*%
X150290000Y-66430000D02*
X150390000Y-66330000D01*
X109180000Y-66430000D02*
X150290000Y-66430000D01*
%TO.N,Net-(J1-Pin_12)*%
X109180000Y-102070000D02*
X150290000Y-102070000D01*
X150290000Y-102070000D02*
X150390000Y-101970000D01*
%TD*%
M02*
