%TF.GenerationSoftware,KiCad,Pcbnew,8.0.3-8.0.3-0~ubuntu24.04.1*%
%TF.CreationDate,2024-07-14T13:10:06-07:00*%
%TF.ProjectId,interconnect,696e7465-7263-46f6-9e6e-6563742e6b69,rev?*%
%TF.SameCoordinates,Original*%
%TF.FileFunction,Legend,Top*%
%TF.FilePolarity,Positive*%
%FSLAX46Y46*%
G04 Gerber Fmt 4.6, Leading zero omitted, Abs format (unit mm)*
G04 Created by KiCad (PCBNEW 8.0.3-8.0.3-0~ubuntu24.04.1) date 2024-07-14 13:10:06*
%MOMM*%
%LPD*%
G01*
G04 APERTURE LIST*
%ADD10C,0.300000*%
%ADD11C,0.100000*%
%ADD12C,0.010000*%
G04 APERTURE END LIST*
D10*
X130220828Y-113505489D02*
X128720828Y-113505489D01*
X130220828Y-112648346D02*
X129363685Y-113291203D01*
X128720828Y-112648346D02*
X129577971Y-113505489D01*
X130220828Y-112005489D02*
X128720828Y-112005489D01*
X130220828Y-111291203D02*
X128720828Y-111291203D01*
X128720828Y-111291203D02*
X129792257Y-110791203D01*
X129792257Y-110791203D02*
X128720828Y-110291203D01*
X128720828Y-110291203D02*
X130220828Y-110291203D01*
X129649400Y-109576917D02*
X129649400Y-108434060D01*
X130220828Y-106934059D02*
X130220828Y-107791202D01*
X130220828Y-107362631D02*
X128720828Y-107362631D01*
X128720828Y-107362631D02*
X128935114Y-107505488D01*
X128935114Y-107505488D02*
X129077971Y-107648345D01*
X129077971Y-107648345D02*
X129149400Y-107791202D01*
X130220828Y-105148346D02*
X128720828Y-105148346D01*
X128720828Y-105148346D02*
X128720828Y-104576917D01*
X128720828Y-104576917D02*
X128792257Y-104434060D01*
X128792257Y-104434060D02*
X128863685Y-104362631D01*
X128863685Y-104362631D02*
X129006542Y-104291203D01*
X129006542Y-104291203D02*
X129220828Y-104291203D01*
X129220828Y-104291203D02*
X129363685Y-104362631D01*
X129363685Y-104362631D02*
X129435114Y-104434060D01*
X129435114Y-104434060D02*
X129506542Y-104576917D01*
X129506542Y-104576917D02*
X129506542Y-105148346D01*
X130220828Y-103005489D02*
X129435114Y-103005489D01*
X129435114Y-103005489D02*
X129292257Y-103076917D01*
X129292257Y-103076917D02*
X129220828Y-103219774D01*
X129220828Y-103219774D02*
X129220828Y-103505489D01*
X129220828Y-103505489D02*
X129292257Y-103648346D01*
X130149400Y-103005489D02*
X130220828Y-103148346D01*
X130220828Y-103148346D02*
X130220828Y-103505489D01*
X130220828Y-103505489D02*
X130149400Y-103648346D01*
X130149400Y-103648346D02*
X130006542Y-103719774D01*
X130006542Y-103719774D02*
X129863685Y-103719774D01*
X129863685Y-103719774D02*
X129720828Y-103648346D01*
X129720828Y-103648346D02*
X129649400Y-103505489D01*
X129649400Y-103505489D02*
X129649400Y-103148346D01*
X129649400Y-103148346D02*
X129577971Y-103005489D01*
X130149400Y-102362631D02*
X130220828Y-102219774D01*
X130220828Y-102219774D02*
X130220828Y-101934060D01*
X130220828Y-101934060D02*
X130149400Y-101791203D01*
X130149400Y-101791203D02*
X130006542Y-101719774D01*
X130006542Y-101719774D02*
X129935114Y-101719774D01*
X129935114Y-101719774D02*
X129792257Y-101791203D01*
X129792257Y-101791203D02*
X129720828Y-101934060D01*
X129720828Y-101934060D02*
X129720828Y-102148346D01*
X129720828Y-102148346D02*
X129649400Y-102291203D01*
X129649400Y-102291203D02*
X129506542Y-102362631D01*
X129506542Y-102362631D02*
X129435114Y-102362631D01*
X129435114Y-102362631D02*
X129292257Y-102291203D01*
X129292257Y-102291203D02*
X129220828Y-102148346D01*
X129220828Y-102148346D02*
X129220828Y-101934060D01*
X129220828Y-101934060D02*
X129292257Y-101791203D01*
X130149400Y-101148345D02*
X130220828Y-101005488D01*
X130220828Y-101005488D02*
X130220828Y-100719774D01*
X130220828Y-100719774D02*
X130149400Y-100576917D01*
X130149400Y-100576917D02*
X130006542Y-100505488D01*
X130006542Y-100505488D02*
X129935114Y-100505488D01*
X129935114Y-100505488D02*
X129792257Y-100576917D01*
X129792257Y-100576917D02*
X129720828Y-100719774D01*
X129720828Y-100719774D02*
X129720828Y-100934060D01*
X129720828Y-100934060D02*
X129649400Y-101076917D01*
X129649400Y-101076917D02*
X129506542Y-101148345D01*
X129506542Y-101148345D02*
X129435114Y-101148345D01*
X129435114Y-101148345D02*
X129292257Y-101076917D01*
X129292257Y-101076917D02*
X129220828Y-100934060D01*
X129220828Y-100934060D02*
X129220828Y-100719774D01*
X129220828Y-100719774D02*
X129292257Y-100576917D01*
X130220828Y-99862631D02*
X129220828Y-99862631D01*
X128720828Y-99862631D02*
X128792257Y-99934059D01*
X128792257Y-99934059D02*
X128863685Y-99862631D01*
X128863685Y-99862631D02*
X128792257Y-99791202D01*
X128792257Y-99791202D02*
X128720828Y-99862631D01*
X128720828Y-99862631D02*
X128863685Y-99862631D01*
X129220828Y-99291202D02*
X130220828Y-98934059D01*
X130220828Y-98934059D02*
X129220828Y-98576916D01*
X130149400Y-97434059D02*
X130220828Y-97576916D01*
X130220828Y-97576916D02*
X130220828Y-97862631D01*
X130220828Y-97862631D02*
X130149400Y-98005488D01*
X130149400Y-98005488D02*
X130006542Y-98076916D01*
X130006542Y-98076916D02*
X129435114Y-98076916D01*
X129435114Y-98076916D02*
X129292257Y-98005488D01*
X129292257Y-98005488D02*
X129220828Y-97862631D01*
X129220828Y-97862631D02*
X129220828Y-97576916D01*
X129220828Y-97576916D02*
X129292257Y-97434059D01*
X129292257Y-97434059D02*
X129435114Y-97362631D01*
X129435114Y-97362631D02*
X129577971Y-97362631D01*
X129577971Y-97362631D02*
X129720828Y-98076916D01*
X130077971Y-94719774D02*
X130149400Y-94791202D01*
X130149400Y-94791202D02*
X130220828Y-95005488D01*
X130220828Y-95005488D02*
X130220828Y-95148345D01*
X130220828Y-95148345D02*
X130149400Y-95362631D01*
X130149400Y-95362631D02*
X130006542Y-95505488D01*
X130006542Y-95505488D02*
X129863685Y-95576917D01*
X129863685Y-95576917D02*
X129577971Y-95648345D01*
X129577971Y-95648345D02*
X129363685Y-95648345D01*
X129363685Y-95648345D02*
X129077971Y-95576917D01*
X129077971Y-95576917D02*
X128935114Y-95505488D01*
X128935114Y-95505488D02*
X128792257Y-95362631D01*
X128792257Y-95362631D02*
X128720828Y-95148345D01*
X128720828Y-95148345D02*
X128720828Y-95005488D01*
X128720828Y-95005488D02*
X128792257Y-94791202D01*
X128792257Y-94791202D02*
X128863685Y-94719774D01*
X130220828Y-93862631D02*
X130149400Y-94005488D01*
X130149400Y-94005488D02*
X130077971Y-94076917D01*
X130077971Y-94076917D02*
X129935114Y-94148345D01*
X129935114Y-94148345D02*
X129506542Y-94148345D01*
X129506542Y-94148345D02*
X129363685Y-94076917D01*
X129363685Y-94076917D02*
X129292257Y-94005488D01*
X129292257Y-94005488D02*
X129220828Y-93862631D01*
X129220828Y-93862631D02*
X129220828Y-93648345D01*
X129220828Y-93648345D02*
X129292257Y-93505488D01*
X129292257Y-93505488D02*
X129363685Y-93434060D01*
X129363685Y-93434060D02*
X129506542Y-93362631D01*
X129506542Y-93362631D02*
X129935114Y-93362631D01*
X129935114Y-93362631D02*
X130077971Y-93434060D01*
X130077971Y-93434060D02*
X130149400Y-93505488D01*
X130149400Y-93505488D02*
X130220828Y-93648345D01*
X130220828Y-93648345D02*
X130220828Y-93862631D01*
X129220828Y-92719774D02*
X130220828Y-92719774D01*
X129363685Y-92719774D02*
X129292257Y-92648345D01*
X129292257Y-92648345D02*
X129220828Y-92505488D01*
X129220828Y-92505488D02*
X129220828Y-92291202D01*
X129220828Y-92291202D02*
X129292257Y-92148345D01*
X129292257Y-92148345D02*
X129435114Y-92076917D01*
X129435114Y-92076917D02*
X130220828Y-92076917D01*
X129220828Y-91362631D02*
X130220828Y-91362631D01*
X129363685Y-91362631D02*
X129292257Y-91291202D01*
X129292257Y-91291202D02*
X129220828Y-91148345D01*
X129220828Y-91148345D02*
X129220828Y-90934059D01*
X129220828Y-90934059D02*
X129292257Y-90791202D01*
X129292257Y-90791202D02*
X129435114Y-90719774D01*
X129435114Y-90719774D02*
X130220828Y-90719774D01*
X130149400Y-89434059D02*
X130220828Y-89576916D01*
X130220828Y-89576916D02*
X130220828Y-89862631D01*
X130220828Y-89862631D02*
X130149400Y-90005488D01*
X130149400Y-90005488D02*
X130006542Y-90076916D01*
X130006542Y-90076916D02*
X129435114Y-90076916D01*
X129435114Y-90076916D02*
X129292257Y-90005488D01*
X129292257Y-90005488D02*
X129220828Y-89862631D01*
X129220828Y-89862631D02*
X129220828Y-89576916D01*
X129220828Y-89576916D02*
X129292257Y-89434059D01*
X129292257Y-89434059D02*
X129435114Y-89362631D01*
X129435114Y-89362631D02*
X129577971Y-89362631D01*
X129577971Y-89362631D02*
X129720828Y-90076916D01*
X130149400Y-88076917D02*
X130220828Y-88219774D01*
X130220828Y-88219774D02*
X130220828Y-88505488D01*
X130220828Y-88505488D02*
X130149400Y-88648345D01*
X130149400Y-88648345D02*
X130077971Y-88719774D01*
X130077971Y-88719774D02*
X129935114Y-88791202D01*
X129935114Y-88791202D02*
X129506542Y-88791202D01*
X129506542Y-88791202D02*
X129363685Y-88719774D01*
X129363685Y-88719774D02*
X129292257Y-88648345D01*
X129292257Y-88648345D02*
X129220828Y-88505488D01*
X129220828Y-88505488D02*
X129220828Y-88219774D01*
X129220828Y-88219774D02*
X129292257Y-88076917D01*
X129220828Y-87648345D02*
X129220828Y-87076917D01*
X128720828Y-87434060D02*
X130006542Y-87434060D01*
X130006542Y-87434060D02*
X130149400Y-87362631D01*
X130149400Y-87362631D02*
X130220828Y-87219774D01*
X130220828Y-87219774D02*
X130220828Y-87076917D01*
X130220828Y-86362631D02*
X130149400Y-86505488D01*
X130149400Y-86505488D02*
X130077971Y-86576917D01*
X130077971Y-86576917D02*
X129935114Y-86648345D01*
X129935114Y-86648345D02*
X129506542Y-86648345D01*
X129506542Y-86648345D02*
X129363685Y-86576917D01*
X129363685Y-86576917D02*
X129292257Y-86505488D01*
X129292257Y-86505488D02*
X129220828Y-86362631D01*
X129220828Y-86362631D02*
X129220828Y-86148345D01*
X129220828Y-86148345D02*
X129292257Y-86005488D01*
X129292257Y-86005488D02*
X129363685Y-85934060D01*
X129363685Y-85934060D02*
X129506542Y-85862631D01*
X129506542Y-85862631D02*
X129935114Y-85862631D01*
X129935114Y-85862631D02*
X130077971Y-85934060D01*
X130077971Y-85934060D02*
X130149400Y-86005488D01*
X130149400Y-86005488D02*
X130220828Y-86148345D01*
X130220828Y-86148345D02*
X130220828Y-86362631D01*
X130220828Y-85219774D02*
X129220828Y-85219774D01*
X129506542Y-85219774D02*
X129363685Y-85148345D01*
X129363685Y-85148345D02*
X129292257Y-85076917D01*
X129292257Y-85076917D02*
X129220828Y-84934059D01*
X129220828Y-84934059D02*
X129220828Y-84791202D01*
X135040828Y-66908346D02*
X134326542Y-67408346D01*
X135040828Y-67765489D02*
X133540828Y-67765489D01*
X133540828Y-67765489D02*
X133540828Y-67194060D01*
X133540828Y-67194060D02*
X133612257Y-67051203D01*
X133612257Y-67051203D02*
X133683685Y-66979774D01*
X133683685Y-66979774D02*
X133826542Y-66908346D01*
X133826542Y-66908346D02*
X134040828Y-66908346D01*
X134040828Y-66908346D02*
X134183685Y-66979774D01*
X134183685Y-66979774D02*
X134255114Y-67051203D01*
X134255114Y-67051203D02*
X134326542Y-67194060D01*
X134326542Y-67194060D02*
X134326542Y-67765489D01*
X134969400Y-65694060D02*
X135040828Y-65836917D01*
X135040828Y-65836917D02*
X135040828Y-66122632D01*
X135040828Y-66122632D02*
X134969400Y-66265489D01*
X134969400Y-66265489D02*
X134826542Y-66336917D01*
X134826542Y-66336917D02*
X134255114Y-66336917D01*
X134255114Y-66336917D02*
X134112257Y-66265489D01*
X134112257Y-66265489D02*
X134040828Y-66122632D01*
X134040828Y-66122632D02*
X134040828Y-65836917D01*
X134040828Y-65836917D02*
X134112257Y-65694060D01*
X134112257Y-65694060D02*
X134255114Y-65622632D01*
X134255114Y-65622632D02*
X134397971Y-65622632D01*
X134397971Y-65622632D02*
X134540828Y-66336917D01*
X134040828Y-65122632D02*
X135040828Y-64765489D01*
X135040828Y-64765489D02*
X134040828Y-64408346D01*
X135040828Y-63836918D02*
X134040828Y-63836918D01*
X133540828Y-63836918D02*
X133612257Y-63908346D01*
X133612257Y-63908346D02*
X133683685Y-63836918D01*
X133683685Y-63836918D02*
X133612257Y-63765489D01*
X133612257Y-63765489D02*
X133540828Y-63836918D01*
X133540828Y-63836918D02*
X133683685Y-63836918D01*
X134969400Y-63194060D02*
X135040828Y-63051203D01*
X135040828Y-63051203D02*
X135040828Y-62765489D01*
X135040828Y-62765489D02*
X134969400Y-62622632D01*
X134969400Y-62622632D02*
X134826542Y-62551203D01*
X134826542Y-62551203D02*
X134755114Y-62551203D01*
X134755114Y-62551203D02*
X134612257Y-62622632D01*
X134612257Y-62622632D02*
X134540828Y-62765489D01*
X134540828Y-62765489D02*
X134540828Y-62979775D01*
X134540828Y-62979775D02*
X134469400Y-63122632D01*
X134469400Y-63122632D02*
X134326542Y-63194060D01*
X134326542Y-63194060D02*
X134255114Y-63194060D01*
X134255114Y-63194060D02*
X134112257Y-63122632D01*
X134112257Y-63122632D02*
X134040828Y-62979775D01*
X134040828Y-62979775D02*
X134040828Y-62765489D01*
X134040828Y-62765489D02*
X134112257Y-62622632D01*
X135040828Y-61908346D02*
X134040828Y-61908346D01*
X133540828Y-61908346D02*
X133612257Y-61979774D01*
X133612257Y-61979774D02*
X133683685Y-61908346D01*
X133683685Y-61908346D02*
X133612257Y-61836917D01*
X133612257Y-61836917D02*
X133540828Y-61908346D01*
X133540828Y-61908346D02*
X133683685Y-61908346D01*
X135040828Y-60979774D02*
X134969400Y-61122631D01*
X134969400Y-61122631D02*
X134897971Y-61194060D01*
X134897971Y-61194060D02*
X134755114Y-61265488D01*
X134755114Y-61265488D02*
X134326542Y-61265488D01*
X134326542Y-61265488D02*
X134183685Y-61194060D01*
X134183685Y-61194060D02*
X134112257Y-61122631D01*
X134112257Y-61122631D02*
X134040828Y-60979774D01*
X134040828Y-60979774D02*
X134040828Y-60765488D01*
X134040828Y-60765488D02*
X134112257Y-60622631D01*
X134112257Y-60622631D02*
X134183685Y-60551203D01*
X134183685Y-60551203D02*
X134326542Y-60479774D01*
X134326542Y-60479774D02*
X134755114Y-60479774D01*
X134755114Y-60479774D02*
X134897971Y-60551203D01*
X134897971Y-60551203D02*
X134969400Y-60622631D01*
X134969400Y-60622631D02*
X135040828Y-60765488D01*
X135040828Y-60765488D02*
X135040828Y-60979774D01*
X134040828Y-59836917D02*
X135040828Y-59836917D01*
X134183685Y-59836917D02*
X134112257Y-59765488D01*
X134112257Y-59765488D02*
X134040828Y-59622631D01*
X134040828Y-59622631D02*
X134040828Y-59408345D01*
X134040828Y-59408345D02*
X134112257Y-59265488D01*
X134112257Y-59265488D02*
X134255114Y-59194060D01*
X134255114Y-59194060D02*
X135040828Y-59194060D01*
X135040828Y-56551202D02*
X135040828Y-57408345D01*
X135040828Y-56979774D02*
X133540828Y-56979774D01*
X133540828Y-56979774D02*
X133755114Y-57122631D01*
X133755114Y-57122631D02*
X133897971Y-57265488D01*
X133897971Y-57265488D02*
X133969400Y-57408345D01*
X134897971Y-55908346D02*
X134969400Y-55836917D01*
X134969400Y-55836917D02*
X135040828Y-55908346D01*
X135040828Y-55908346D02*
X134969400Y-55979774D01*
X134969400Y-55979774D02*
X134897971Y-55908346D01*
X134897971Y-55908346D02*
X135040828Y-55908346D01*
X133540828Y-54908345D02*
X133540828Y-54765488D01*
X133540828Y-54765488D02*
X133612257Y-54622631D01*
X133612257Y-54622631D02*
X133683685Y-54551203D01*
X133683685Y-54551203D02*
X133826542Y-54479774D01*
X133826542Y-54479774D02*
X134112257Y-54408345D01*
X134112257Y-54408345D02*
X134469400Y-54408345D01*
X134469400Y-54408345D02*
X134755114Y-54479774D01*
X134755114Y-54479774D02*
X134897971Y-54551203D01*
X134897971Y-54551203D02*
X134969400Y-54622631D01*
X134969400Y-54622631D02*
X135040828Y-54765488D01*
X135040828Y-54765488D02*
X135040828Y-54908345D01*
X135040828Y-54908345D02*
X134969400Y-55051203D01*
X134969400Y-55051203D02*
X134897971Y-55122631D01*
X134897971Y-55122631D02*
X134755114Y-55194060D01*
X134755114Y-55194060D02*
X134469400Y-55265488D01*
X134469400Y-55265488D02*
X134112257Y-55265488D01*
X134112257Y-55265488D02*
X133826542Y-55194060D01*
X133826542Y-55194060D02*
X133683685Y-55122631D01*
X133683685Y-55122631D02*
X133612257Y-55051203D01*
X133612257Y-55051203D02*
X133540828Y-54908345D01*
D11*
X119252931Y-123182419D02*
X118681503Y-123182419D01*
X118967217Y-123182419D02*
X118967217Y-122182419D01*
X118967217Y-122182419D02*
X118871979Y-122325276D01*
X118871979Y-122325276D02*
X118776741Y-122420514D01*
X118776741Y-122420514D02*
X118681503Y-122468133D01*
X119586265Y-122182419D02*
X120252931Y-122182419D01*
X120252931Y-122182419D02*
X119824360Y-123182419D01*
X119133883Y-94682419D02*
X118562455Y-94682419D01*
X118848169Y-94682419D02*
X118848169Y-93682419D01*
X118848169Y-93682419D02*
X118752931Y-93825276D01*
X118752931Y-93825276D02*
X118657693Y-93920514D01*
X118657693Y-93920514D02*
X118562455Y-93968133D01*
X119752931Y-93682419D02*
X119848169Y-93682419D01*
X119848169Y-93682419D02*
X119943407Y-93730038D01*
X119943407Y-93730038D02*
X119991026Y-93777657D01*
X119991026Y-93777657D02*
X120038645Y-93872895D01*
X120038645Y-93872895D02*
X120086264Y-94063371D01*
X120086264Y-94063371D02*
X120086264Y-94301466D01*
X120086264Y-94301466D02*
X120038645Y-94491942D01*
X120038645Y-94491942D02*
X119991026Y-94587180D01*
X119991026Y-94587180D02*
X119943407Y-94634800D01*
X119943407Y-94634800D02*
X119848169Y-94682419D01*
X119848169Y-94682419D02*
X119752931Y-94682419D01*
X119752931Y-94682419D02*
X119657693Y-94634800D01*
X119657693Y-94634800D02*
X119610074Y-94587180D01*
X119610074Y-94587180D02*
X119562455Y-94491942D01*
X119562455Y-94491942D02*
X119514836Y-94301466D01*
X119514836Y-94301466D02*
X119514836Y-94063371D01*
X119514836Y-94063371D02*
X119562455Y-93872895D01*
X119562455Y-93872895D02*
X119610074Y-93777657D01*
X119610074Y-93777657D02*
X119657693Y-93730038D01*
X119657693Y-93730038D02*
X119752931Y-93682419D01*
X119110074Y-119182419D02*
X118538646Y-119182419D01*
X118824360Y-119182419D02*
X118824360Y-118182419D01*
X118824360Y-118182419D02*
X118729122Y-118325276D01*
X118729122Y-118325276D02*
X118633884Y-118420514D01*
X118633884Y-118420514D02*
X118538646Y-118468133D01*
X119967217Y-118182419D02*
X119776741Y-118182419D01*
X119776741Y-118182419D02*
X119681503Y-118230038D01*
X119681503Y-118230038D02*
X119633884Y-118277657D01*
X119633884Y-118277657D02*
X119538646Y-118420514D01*
X119538646Y-118420514D02*
X119491027Y-118610990D01*
X119491027Y-118610990D02*
X119491027Y-118991942D01*
X119491027Y-118991942D02*
X119538646Y-119087180D01*
X119538646Y-119087180D02*
X119586265Y-119134800D01*
X119586265Y-119134800D02*
X119681503Y-119182419D01*
X119681503Y-119182419D02*
X119871979Y-119182419D01*
X119871979Y-119182419D02*
X119967217Y-119134800D01*
X119967217Y-119134800D02*
X120014836Y-119087180D01*
X120014836Y-119087180D02*
X120062455Y-118991942D01*
X120062455Y-118991942D02*
X120062455Y-118753847D01*
X120062455Y-118753847D02*
X120014836Y-118658609D01*
X120014836Y-118658609D02*
X119967217Y-118610990D01*
X119967217Y-118610990D02*
X119871979Y-118563371D01*
X119871979Y-118563371D02*
X119681503Y-118563371D01*
X119681503Y-118563371D02*
X119586265Y-118610990D01*
X119586265Y-118610990D02*
X119538646Y-118658609D01*
X119538646Y-118658609D02*
X119491027Y-118753847D01*
X119229121Y-107182419D02*
X118657693Y-107182419D01*
X118943407Y-107182419D02*
X118943407Y-106182419D01*
X118943407Y-106182419D02*
X118848169Y-106325276D01*
X118848169Y-106325276D02*
X118752931Y-106420514D01*
X118752931Y-106420514D02*
X118657693Y-106468133D01*
X119562455Y-106182419D02*
X120181502Y-106182419D01*
X120181502Y-106182419D02*
X119848169Y-106563371D01*
X119848169Y-106563371D02*
X119991026Y-106563371D01*
X119991026Y-106563371D02*
X120086264Y-106610990D01*
X120086264Y-106610990D02*
X120133883Y-106658609D01*
X120133883Y-106658609D02*
X120181502Y-106753847D01*
X120181502Y-106753847D02*
X120181502Y-106991942D01*
X120181502Y-106991942D02*
X120133883Y-107087180D01*
X120133883Y-107087180D02*
X120086264Y-107134800D01*
X120086264Y-107134800D02*
X119991026Y-107182419D01*
X119991026Y-107182419D02*
X119705312Y-107182419D01*
X119705312Y-107182419D02*
X119610074Y-107134800D01*
X119610074Y-107134800D02*
X119562455Y-107087180D01*
X118633884Y-133777657D02*
X118681503Y-133730038D01*
X118681503Y-133730038D02*
X118776741Y-133682419D01*
X118776741Y-133682419D02*
X119014836Y-133682419D01*
X119014836Y-133682419D02*
X119110074Y-133730038D01*
X119110074Y-133730038D02*
X119157693Y-133777657D01*
X119157693Y-133777657D02*
X119205312Y-133872895D01*
X119205312Y-133872895D02*
X119205312Y-133968133D01*
X119205312Y-133968133D02*
X119157693Y-134110990D01*
X119157693Y-134110990D02*
X118586265Y-134682419D01*
X118586265Y-134682419D02*
X119205312Y-134682419D01*
X119824360Y-133682419D02*
X119919598Y-133682419D01*
X119919598Y-133682419D02*
X120014836Y-133730038D01*
X120014836Y-133730038D02*
X120062455Y-133777657D01*
X120062455Y-133777657D02*
X120110074Y-133872895D01*
X120110074Y-133872895D02*
X120157693Y-134063371D01*
X120157693Y-134063371D02*
X120157693Y-134301466D01*
X120157693Y-134301466D02*
X120110074Y-134491942D01*
X120110074Y-134491942D02*
X120062455Y-134587180D01*
X120062455Y-134587180D02*
X120014836Y-134634800D01*
X120014836Y-134634800D02*
X119919598Y-134682419D01*
X119919598Y-134682419D02*
X119824360Y-134682419D01*
X119824360Y-134682419D02*
X119729122Y-134634800D01*
X119729122Y-134634800D02*
X119681503Y-134587180D01*
X119681503Y-134587180D02*
X119633884Y-134491942D01*
X119633884Y-134491942D02*
X119586265Y-134301466D01*
X119586265Y-134301466D02*
X119586265Y-134063371D01*
X119586265Y-134063371D02*
X119633884Y-133872895D01*
X119633884Y-133872895D02*
X119681503Y-133777657D01*
X119681503Y-133777657D02*
X119729122Y-133730038D01*
X119729122Y-133730038D02*
X119824360Y-133682419D01*
X118729122Y-86610990D02*
X118633884Y-86563371D01*
X118633884Y-86563371D02*
X118586265Y-86515752D01*
X118586265Y-86515752D02*
X118538646Y-86420514D01*
X118538646Y-86420514D02*
X118538646Y-86372895D01*
X118538646Y-86372895D02*
X118586265Y-86277657D01*
X118586265Y-86277657D02*
X118633884Y-86230038D01*
X118633884Y-86230038D02*
X118729122Y-86182419D01*
X118729122Y-86182419D02*
X118919598Y-86182419D01*
X118919598Y-86182419D02*
X119014836Y-86230038D01*
X119014836Y-86230038D02*
X119062455Y-86277657D01*
X119062455Y-86277657D02*
X119110074Y-86372895D01*
X119110074Y-86372895D02*
X119110074Y-86420514D01*
X119110074Y-86420514D02*
X119062455Y-86515752D01*
X119062455Y-86515752D02*
X119014836Y-86563371D01*
X119014836Y-86563371D02*
X118919598Y-86610990D01*
X118919598Y-86610990D02*
X118729122Y-86610990D01*
X118729122Y-86610990D02*
X118633884Y-86658609D01*
X118633884Y-86658609D02*
X118586265Y-86706228D01*
X118586265Y-86706228D02*
X118538646Y-86801466D01*
X118538646Y-86801466D02*
X118538646Y-86991942D01*
X118538646Y-86991942D02*
X118586265Y-87087180D01*
X118586265Y-87087180D02*
X118633884Y-87134800D01*
X118633884Y-87134800D02*
X118729122Y-87182419D01*
X118729122Y-87182419D02*
X118919598Y-87182419D01*
X118919598Y-87182419D02*
X119014836Y-87134800D01*
X119014836Y-87134800D02*
X119062455Y-87087180D01*
X119062455Y-87087180D02*
X119110074Y-86991942D01*
X119110074Y-86991942D02*
X119110074Y-86801466D01*
X119110074Y-86801466D02*
X119062455Y-86706228D01*
X119062455Y-86706228D02*
X119014836Y-86658609D01*
X119014836Y-86658609D02*
X118919598Y-86610990D01*
X118657693Y-62777657D02*
X118705312Y-62730038D01*
X118705312Y-62730038D02*
X118800550Y-62682419D01*
X118800550Y-62682419D02*
X119038645Y-62682419D01*
X119038645Y-62682419D02*
X119133883Y-62730038D01*
X119133883Y-62730038D02*
X119181502Y-62777657D01*
X119181502Y-62777657D02*
X119229121Y-62872895D01*
X119229121Y-62872895D02*
X119229121Y-62968133D01*
X119229121Y-62968133D02*
X119181502Y-63110990D01*
X119181502Y-63110990D02*
X118610074Y-63682419D01*
X118610074Y-63682419D02*
X119229121Y-63682419D01*
X119133883Y-70515752D02*
X119133883Y-71182419D01*
X118895788Y-70134800D02*
X118657693Y-70849085D01*
X118657693Y-70849085D02*
X119276740Y-70849085D01*
X118633884Y-82182419D02*
X119300550Y-82182419D01*
X119300550Y-82182419D02*
X118871979Y-83182419D01*
X118752931Y-91182419D02*
X118943407Y-91182419D01*
X118943407Y-91182419D02*
X119038645Y-91134800D01*
X119038645Y-91134800D02*
X119086264Y-91087180D01*
X119086264Y-91087180D02*
X119181502Y-90944323D01*
X119181502Y-90944323D02*
X119229121Y-90753847D01*
X119229121Y-90753847D02*
X119229121Y-90372895D01*
X119229121Y-90372895D02*
X119181502Y-90277657D01*
X119181502Y-90277657D02*
X119133883Y-90230038D01*
X119133883Y-90230038D02*
X119038645Y-90182419D01*
X119038645Y-90182419D02*
X118848169Y-90182419D01*
X118848169Y-90182419D02*
X118752931Y-90230038D01*
X118752931Y-90230038D02*
X118705312Y-90277657D01*
X118705312Y-90277657D02*
X118657693Y-90372895D01*
X118657693Y-90372895D02*
X118657693Y-90610990D01*
X118657693Y-90610990D02*
X118705312Y-90706228D01*
X118705312Y-90706228D02*
X118752931Y-90753847D01*
X118752931Y-90753847D02*
X118848169Y-90801466D01*
X118848169Y-90801466D02*
X119038645Y-90801466D01*
X119038645Y-90801466D02*
X119133883Y-90753847D01*
X119133883Y-90753847D02*
X119181502Y-90706228D01*
X119181502Y-90706228D02*
X119229121Y-90610990D01*
X119300550Y-98682419D02*
X118729122Y-98682419D01*
X119014836Y-98682419D02*
X119014836Y-97682419D01*
X119014836Y-97682419D02*
X118919598Y-97825276D01*
X118919598Y-97825276D02*
X118824360Y-97920514D01*
X118824360Y-97920514D02*
X118729122Y-97968133D01*
X120252931Y-98682419D02*
X119681503Y-98682419D01*
X119967217Y-98682419D02*
X119967217Y-97682419D01*
X119967217Y-97682419D02*
X119871979Y-97825276D01*
X119871979Y-97825276D02*
X119776741Y-97920514D01*
X119776741Y-97920514D02*
X119681503Y-97968133D01*
X119205312Y-115182419D02*
X118633884Y-115182419D01*
X118919598Y-115182419D02*
X118919598Y-114182419D01*
X118919598Y-114182419D02*
X118824360Y-114325276D01*
X118824360Y-114325276D02*
X118729122Y-114420514D01*
X118729122Y-114420514D02*
X118633884Y-114468133D01*
X120110074Y-114182419D02*
X119633884Y-114182419D01*
X119633884Y-114182419D02*
X119586265Y-114658609D01*
X119586265Y-114658609D02*
X119633884Y-114610990D01*
X119633884Y-114610990D02*
X119729122Y-114563371D01*
X119729122Y-114563371D02*
X119967217Y-114563371D01*
X119967217Y-114563371D02*
X120062455Y-114610990D01*
X120062455Y-114610990D02*
X120110074Y-114658609D01*
X120110074Y-114658609D02*
X120157693Y-114753847D01*
X120157693Y-114753847D02*
X120157693Y-114991942D01*
X120157693Y-114991942D02*
X120110074Y-115087180D01*
X120110074Y-115087180D02*
X120062455Y-115134800D01*
X120062455Y-115134800D02*
X119967217Y-115182419D01*
X119967217Y-115182419D02*
X119729122Y-115182419D01*
X119729122Y-115182419D02*
X119633884Y-115134800D01*
X119633884Y-115134800D02*
X119586265Y-115087180D01*
X118633884Y-141777657D02*
X118681503Y-141730038D01*
X118681503Y-141730038D02*
X118776741Y-141682419D01*
X118776741Y-141682419D02*
X119014836Y-141682419D01*
X119014836Y-141682419D02*
X119110074Y-141730038D01*
X119110074Y-141730038D02*
X119157693Y-141777657D01*
X119157693Y-141777657D02*
X119205312Y-141872895D01*
X119205312Y-141872895D02*
X119205312Y-141968133D01*
X119205312Y-141968133D02*
X119157693Y-142110990D01*
X119157693Y-142110990D02*
X118586265Y-142682419D01*
X118586265Y-142682419D02*
X119205312Y-142682419D01*
X119586265Y-141777657D02*
X119633884Y-141730038D01*
X119633884Y-141730038D02*
X119729122Y-141682419D01*
X119729122Y-141682419D02*
X119967217Y-141682419D01*
X119967217Y-141682419D02*
X120062455Y-141730038D01*
X120062455Y-141730038D02*
X120110074Y-141777657D01*
X120110074Y-141777657D02*
X120157693Y-141872895D01*
X120157693Y-141872895D02*
X120157693Y-141968133D01*
X120157693Y-141968133D02*
X120110074Y-142110990D01*
X120110074Y-142110990D02*
X119538646Y-142682419D01*
X119538646Y-142682419D02*
X120157693Y-142682419D01*
X118586265Y-137777657D02*
X118633884Y-137730038D01*
X118633884Y-137730038D02*
X118729122Y-137682419D01*
X118729122Y-137682419D02*
X118967217Y-137682419D01*
X118967217Y-137682419D02*
X119062455Y-137730038D01*
X119062455Y-137730038D02*
X119110074Y-137777657D01*
X119110074Y-137777657D02*
X119157693Y-137872895D01*
X119157693Y-137872895D02*
X119157693Y-137968133D01*
X119157693Y-137968133D02*
X119110074Y-138110990D01*
X119110074Y-138110990D02*
X118538646Y-138682419D01*
X118538646Y-138682419D02*
X119157693Y-138682419D01*
X120110074Y-138682419D02*
X119538646Y-138682419D01*
X119824360Y-138682419D02*
X119824360Y-137682419D01*
X119824360Y-137682419D02*
X119729122Y-137825276D01*
X119729122Y-137825276D02*
X119633884Y-137920514D01*
X119633884Y-137920514D02*
X119538646Y-137968133D01*
X119157693Y-59682419D02*
X118586265Y-59682419D01*
X118871979Y-59682419D02*
X118871979Y-58682419D01*
X118871979Y-58682419D02*
X118776741Y-58825276D01*
X118776741Y-58825276D02*
X118681503Y-58920514D01*
X118681503Y-58920514D02*
X118586265Y-58968133D01*
X119062455Y-78182419D02*
X118871979Y-78182419D01*
X118871979Y-78182419D02*
X118776741Y-78230038D01*
X118776741Y-78230038D02*
X118729122Y-78277657D01*
X118729122Y-78277657D02*
X118633884Y-78420514D01*
X118633884Y-78420514D02*
X118586265Y-78610990D01*
X118586265Y-78610990D02*
X118586265Y-78991942D01*
X118586265Y-78991942D02*
X118633884Y-79087180D01*
X118633884Y-79087180D02*
X118681503Y-79134800D01*
X118681503Y-79134800D02*
X118776741Y-79182419D01*
X118776741Y-79182419D02*
X118967217Y-79182419D01*
X118967217Y-79182419D02*
X119062455Y-79134800D01*
X119062455Y-79134800D02*
X119110074Y-79087180D01*
X119110074Y-79087180D02*
X119157693Y-78991942D01*
X119157693Y-78991942D02*
X119157693Y-78753847D01*
X119157693Y-78753847D02*
X119110074Y-78658609D01*
X119110074Y-78658609D02*
X119062455Y-78610990D01*
X119062455Y-78610990D02*
X118967217Y-78563371D01*
X118967217Y-78563371D02*
X118776741Y-78563371D01*
X118776741Y-78563371D02*
X118681503Y-78610990D01*
X118681503Y-78610990D02*
X118633884Y-78658609D01*
X118633884Y-78658609D02*
X118586265Y-78753847D01*
X119133883Y-74182419D02*
X118657693Y-74182419D01*
X118657693Y-74182419D02*
X118610074Y-74658609D01*
X118610074Y-74658609D02*
X118657693Y-74610990D01*
X118657693Y-74610990D02*
X118752931Y-74563371D01*
X118752931Y-74563371D02*
X118991026Y-74563371D01*
X118991026Y-74563371D02*
X119086264Y-74610990D01*
X119086264Y-74610990D02*
X119133883Y-74658609D01*
X119133883Y-74658609D02*
X119181502Y-74753847D01*
X119181502Y-74753847D02*
X119181502Y-74991942D01*
X119181502Y-74991942D02*
X119133883Y-75087180D01*
X119133883Y-75087180D02*
X119086264Y-75134800D01*
X119086264Y-75134800D02*
X118991026Y-75182419D01*
X118991026Y-75182419D02*
X118752931Y-75182419D01*
X118752931Y-75182419D02*
X118657693Y-75134800D01*
X118657693Y-75134800D02*
X118610074Y-75087180D01*
X119229121Y-111182419D02*
X118657693Y-111182419D01*
X118943407Y-111182419D02*
X118943407Y-110182419D01*
X118943407Y-110182419D02*
X118848169Y-110325276D01*
X118848169Y-110325276D02*
X118752931Y-110420514D01*
X118752931Y-110420514D02*
X118657693Y-110468133D01*
X120086264Y-110515752D02*
X120086264Y-111182419D01*
X119848169Y-110134800D02*
X119610074Y-110849085D01*
X119610074Y-110849085D02*
X120229121Y-110849085D01*
X119300550Y-130682419D02*
X118729122Y-130682419D01*
X119014836Y-130682419D02*
X119014836Y-129682419D01*
X119014836Y-129682419D02*
X118919598Y-129825276D01*
X118919598Y-129825276D02*
X118824360Y-129920514D01*
X118824360Y-129920514D02*
X118729122Y-129968133D01*
X119776741Y-130682419D02*
X119967217Y-130682419D01*
X119967217Y-130682419D02*
X120062455Y-130634800D01*
X120062455Y-130634800D02*
X120110074Y-130587180D01*
X120110074Y-130587180D02*
X120205312Y-130444323D01*
X120205312Y-130444323D02*
X120252931Y-130253847D01*
X120252931Y-130253847D02*
X120252931Y-129872895D01*
X120252931Y-129872895D02*
X120205312Y-129777657D01*
X120205312Y-129777657D02*
X120157693Y-129730038D01*
X120157693Y-129730038D02*
X120062455Y-129682419D01*
X120062455Y-129682419D02*
X119871979Y-129682419D01*
X119871979Y-129682419D02*
X119776741Y-129730038D01*
X119776741Y-129730038D02*
X119729122Y-129777657D01*
X119729122Y-129777657D02*
X119681503Y-129872895D01*
X119681503Y-129872895D02*
X119681503Y-130110990D01*
X119681503Y-130110990D02*
X119729122Y-130206228D01*
X119729122Y-130206228D02*
X119776741Y-130253847D01*
X119776741Y-130253847D02*
X119871979Y-130301466D01*
X119871979Y-130301466D02*
X120062455Y-130301466D01*
X120062455Y-130301466D02*
X120157693Y-130253847D01*
X120157693Y-130253847D02*
X120205312Y-130206228D01*
X120205312Y-130206228D02*
X120252931Y-130110990D01*
X119252931Y-103182419D02*
X118681503Y-103182419D01*
X118967217Y-103182419D02*
X118967217Y-102182419D01*
X118967217Y-102182419D02*
X118871979Y-102325276D01*
X118871979Y-102325276D02*
X118776741Y-102420514D01*
X118776741Y-102420514D02*
X118681503Y-102468133D01*
X119633884Y-102277657D02*
X119681503Y-102230038D01*
X119681503Y-102230038D02*
X119776741Y-102182419D01*
X119776741Y-102182419D02*
X120014836Y-102182419D01*
X120014836Y-102182419D02*
X120110074Y-102230038D01*
X120110074Y-102230038D02*
X120157693Y-102277657D01*
X120157693Y-102277657D02*
X120205312Y-102372895D01*
X120205312Y-102372895D02*
X120205312Y-102468133D01*
X120205312Y-102468133D02*
X120157693Y-102610990D01*
X120157693Y-102610990D02*
X119586265Y-103182419D01*
X119586265Y-103182419D02*
X120205312Y-103182419D01*
X118610074Y-66682419D02*
X119229121Y-66682419D01*
X119229121Y-66682419D02*
X118895788Y-67063371D01*
X118895788Y-67063371D02*
X119038645Y-67063371D01*
X119038645Y-67063371D02*
X119133883Y-67110990D01*
X119133883Y-67110990D02*
X119181502Y-67158609D01*
X119181502Y-67158609D02*
X119229121Y-67253847D01*
X119229121Y-67253847D02*
X119229121Y-67491942D01*
X119229121Y-67491942D02*
X119181502Y-67587180D01*
X119181502Y-67587180D02*
X119133883Y-67634800D01*
X119133883Y-67634800D02*
X119038645Y-67682419D01*
X119038645Y-67682419D02*
X118752931Y-67682419D01*
X118752931Y-67682419D02*
X118657693Y-67634800D01*
X118657693Y-67634800D02*
X118610074Y-67587180D01*
X119157693Y-126682419D02*
X118586265Y-126682419D01*
X118871979Y-126682419D02*
X118871979Y-125682419D01*
X118871979Y-125682419D02*
X118776741Y-125825276D01*
X118776741Y-125825276D02*
X118681503Y-125920514D01*
X118681503Y-125920514D02*
X118586265Y-125968133D01*
X119729122Y-126110990D02*
X119633884Y-126063371D01*
X119633884Y-126063371D02*
X119586265Y-126015752D01*
X119586265Y-126015752D02*
X119538646Y-125920514D01*
X119538646Y-125920514D02*
X119538646Y-125872895D01*
X119538646Y-125872895D02*
X119586265Y-125777657D01*
X119586265Y-125777657D02*
X119633884Y-125730038D01*
X119633884Y-125730038D02*
X119729122Y-125682419D01*
X119729122Y-125682419D02*
X119919598Y-125682419D01*
X119919598Y-125682419D02*
X120014836Y-125730038D01*
X120014836Y-125730038D02*
X120062455Y-125777657D01*
X120062455Y-125777657D02*
X120110074Y-125872895D01*
X120110074Y-125872895D02*
X120110074Y-125920514D01*
X120110074Y-125920514D02*
X120062455Y-126015752D01*
X120062455Y-126015752D02*
X120014836Y-126063371D01*
X120014836Y-126063371D02*
X119919598Y-126110990D01*
X119919598Y-126110990D02*
X119729122Y-126110990D01*
X119729122Y-126110990D02*
X119633884Y-126158609D01*
X119633884Y-126158609D02*
X119586265Y-126206228D01*
X119586265Y-126206228D02*
X119538646Y-126301466D01*
X119538646Y-126301466D02*
X119538646Y-126491942D01*
X119538646Y-126491942D02*
X119586265Y-126587180D01*
X119586265Y-126587180D02*
X119633884Y-126634800D01*
X119633884Y-126634800D02*
X119729122Y-126682419D01*
X119729122Y-126682419D02*
X119919598Y-126682419D01*
X119919598Y-126682419D02*
X120014836Y-126634800D01*
X120014836Y-126634800D02*
X120062455Y-126587180D01*
X120062455Y-126587180D02*
X120110074Y-126491942D01*
X120110074Y-126491942D02*
X120110074Y-126301466D01*
X120110074Y-126301466D02*
X120062455Y-126206228D01*
X120062455Y-126206228D02*
X120014836Y-126158609D01*
X120014836Y-126158609D02*
X119919598Y-126110990D01*
X139412306Y-141677657D02*
X139459925Y-141630038D01*
X139459925Y-141630038D02*
X139555163Y-141582419D01*
X139555163Y-141582419D02*
X139793258Y-141582419D01*
X139793258Y-141582419D02*
X139888496Y-141630038D01*
X139888496Y-141630038D02*
X139936115Y-141677657D01*
X139936115Y-141677657D02*
X139983734Y-141772895D01*
X139983734Y-141772895D02*
X139983734Y-141868133D01*
X139983734Y-141868133D02*
X139936115Y-142010990D01*
X139936115Y-142010990D02*
X139364687Y-142582419D01*
X139364687Y-142582419D02*
X139983734Y-142582419D01*
X140364687Y-141677657D02*
X140412306Y-141630038D01*
X140412306Y-141630038D02*
X140507544Y-141582419D01*
X140507544Y-141582419D02*
X140745639Y-141582419D01*
X140745639Y-141582419D02*
X140840877Y-141630038D01*
X140840877Y-141630038D02*
X140888496Y-141677657D01*
X140888496Y-141677657D02*
X140936115Y-141772895D01*
X140936115Y-141772895D02*
X140936115Y-141868133D01*
X140936115Y-141868133D02*
X140888496Y-142010990D01*
X140888496Y-142010990D02*
X140317068Y-142582419D01*
X140317068Y-142582419D02*
X140936115Y-142582419D01*
X139936115Y-123082419D02*
X139364687Y-123082419D01*
X139650401Y-123082419D02*
X139650401Y-122082419D01*
X139650401Y-122082419D02*
X139555163Y-122225276D01*
X139555163Y-122225276D02*
X139459925Y-122320514D01*
X139459925Y-122320514D02*
X139364687Y-122368133D01*
X140269449Y-122082419D02*
X140936115Y-122082419D01*
X140936115Y-122082419D02*
X140507544Y-123082419D01*
X140340878Y-62677657D02*
X140388497Y-62630038D01*
X140388497Y-62630038D02*
X140483735Y-62582419D01*
X140483735Y-62582419D02*
X140721830Y-62582419D01*
X140721830Y-62582419D02*
X140817068Y-62630038D01*
X140817068Y-62630038D02*
X140864687Y-62677657D01*
X140864687Y-62677657D02*
X140912306Y-62772895D01*
X140912306Y-62772895D02*
X140912306Y-62868133D01*
X140912306Y-62868133D02*
X140864687Y-63010990D01*
X140864687Y-63010990D02*
X140293259Y-63582419D01*
X140293259Y-63582419D02*
X140912306Y-63582419D01*
X140888496Y-78082419D02*
X140698020Y-78082419D01*
X140698020Y-78082419D02*
X140602782Y-78130038D01*
X140602782Y-78130038D02*
X140555163Y-78177657D01*
X140555163Y-78177657D02*
X140459925Y-78320514D01*
X140459925Y-78320514D02*
X140412306Y-78510990D01*
X140412306Y-78510990D02*
X140412306Y-78891942D01*
X140412306Y-78891942D02*
X140459925Y-78987180D01*
X140459925Y-78987180D02*
X140507544Y-79034800D01*
X140507544Y-79034800D02*
X140602782Y-79082419D01*
X140602782Y-79082419D02*
X140793258Y-79082419D01*
X140793258Y-79082419D02*
X140888496Y-79034800D01*
X140888496Y-79034800D02*
X140936115Y-78987180D01*
X140936115Y-78987180D02*
X140983734Y-78891942D01*
X140983734Y-78891942D02*
X140983734Y-78653847D01*
X140983734Y-78653847D02*
X140936115Y-78558609D01*
X140936115Y-78558609D02*
X140888496Y-78510990D01*
X140888496Y-78510990D02*
X140793258Y-78463371D01*
X140793258Y-78463371D02*
X140602782Y-78463371D01*
X140602782Y-78463371D02*
X140507544Y-78510990D01*
X140507544Y-78510990D02*
X140459925Y-78558609D01*
X140459925Y-78558609D02*
X140412306Y-78653847D01*
X140983734Y-59582419D02*
X140412306Y-59582419D01*
X140698020Y-59582419D02*
X140698020Y-58582419D01*
X140698020Y-58582419D02*
X140602782Y-58725276D01*
X140602782Y-58725276D02*
X140507544Y-58820514D01*
X140507544Y-58820514D02*
X140412306Y-58868133D01*
X139936115Y-103082419D02*
X139364687Y-103082419D01*
X139650401Y-103082419D02*
X139650401Y-102082419D01*
X139650401Y-102082419D02*
X139555163Y-102225276D01*
X139555163Y-102225276D02*
X139459925Y-102320514D01*
X139459925Y-102320514D02*
X139364687Y-102368133D01*
X140317068Y-102177657D02*
X140364687Y-102130038D01*
X140364687Y-102130038D02*
X140459925Y-102082419D01*
X140459925Y-102082419D02*
X140698020Y-102082419D01*
X140698020Y-102082419D02*
X140793258Y-102130038D01*
X140793258Y-102130038D02*
X140840877Y-102177657D01*
X140840877Y-102177657D02*
X140888496Y-102272895D01*
X140888496Y-102272895D02*
X140888496Y-102368133D01*
X140888496Y-102368133D02*
X140840877Y-102510990D01*
X140840877Y-102510990D02*
X140269449Y-103082419D01*
X140269449Y-103082419D02*
X140888496Y-103082419D01*
X139959925Y-107082419D02*
X139388497Y-107082419D01*
X139674211Y-107082419D02*
X139674211Y-106082419D01*
X139674211Y-106082419D02*
X139578973Y-106225276D01*
X139578973Y-106225276D02*
X139483735Y-106320514D01*
X139483735Y-106320514D02*
X139388497Y-106368133D01*
X140293259Y-106082419D02*
X140912306Y-106082419D01*
X140912306Y-106082419D02*
X140578973Y-106463371D01*
X140578973Y-106463371D02*
X140721830Y-106463371D01*
X140721830Y-106463371D02*
X140817068Y-106510990D01*
X140817068Y-106510990D02*
X140864687Y-106558609D01*
X140864687Y-106558609D02*
X140912306Y-106653847D01*
X140912306Y-106653847D02*
X140912306Y-106891942D01*
X140912306Y-106891942D02*
X140864687Y-106987180D01*
X140864687Y-106987180D02*
X140817068Y-107034800D01*
X140817068Y-107034800D02*
X140721830Y-107082419D01*
X140721830Y-107082419D02*
X140436116Y-107082419D01*
X140436116Y-107082419D02*
X140340878Y-107034800D01*
X140340878Y-107034800D02*
X140293259Y-106987180D01*
X140650401Y-86510990D02*
X140555163Y-86463371D01*
X140555163Y-86463371D02*
X140507544Y-86415752D01*
X140507544Y-86415752D02*
X140459925Y-86320514D01*
X140459925Y-86320514D02*
X140459925Y-86272895D01*
X140459925Y-86272895D02*
X140507544Y-86177657D01*
X140507544Y-86177657D02*
X140555163Y-86130038D01*
X140555163Y-86130038D02*
X140650401Y-86082419D01*
X140650401Y-86082419D02*
X140840877Y-86082419D01*
X140840877Y-86082419D02*
X140936115Y-86130038D01*
X140936115Y-86130038D02*
X140983734Y-86177657D01*
X140983734Y-86177657D02*
X141031353Y-86272895D01*
X141031353Y-86272895D02*
X141031353Y-86320514D01*
X141031353Y-86320514D02*
X140983734Y-86415752D01*
X140983734Y-86415752D02*
X140936115Y-86463371D01*
X140936115Y-86463371D02*
X140840877Y-86510990D01*
X140840877Y-86510990D02*
X140650401Y-86510990D01*
X140650401Y-86510990D02*
X140555163Y-86558609D01*
X140555163Y-86558609D02*
X140507544Y-86606228D01*
X140507544Y-86606228D02*
X140459925Y-86701466D01*
X140459925Y-86701466D02*
X140459925Y-86891942D01*
X140459925Y-86891942D02*
X140507544Y-86987180D01*
X140507544Y-86987180D02*
X140555163Y-87034800D01*
X140555163Y-87034800D02*
X140650401Y-87082419D01*
X140650401Y-87082419D02*
X140840877Y-87082419D01*
X140840877Y-87082419D02*
X140936115Y-87034800D01*
X140936115Y-87034800D02*
X140983734Y-86987180D01*
X140983734Y-86987180D02*
X141031353Y-86891942D01*
X141031353Y-86891942D02*
X141031353Y-86701466D01*
X141031353Y-86701466D02*
X140983734Y-86606228D01*
X140983734Y-86606228D02*
X140936115Y-86558609D01*
X140936115Y-86558609D02*
X140840877Y-86510990D01*
X140912306Y-74082419D02*
X140436116Y-74082419D01*
X140436116Y-74082419D02*
X140388497Y-74558609D01*
X140388497Y-74558609D02*
X140436116Y-74510990D01*
X140436116Y-74510990D02*
X140531354Y-74463371D01*
X140531354Y-74463371D02*
X140769449Y-74463371D01*
X140769449Y-74463371D02*
X140864687Y-74510990D01*
X140864687Y-74510990D02*
X140912306Y-74558609D01*
X140912306Y-74558609D02*
X140959925Y-74653847D01*
X140959925Y-74653847D02*
X140959925Y-74891942D01*
X140959925Y-74891942D02*
X140912306Y-74987180D01*
X140912306Y-74987180D02*
X140864687Y-75034800D01*
X140864687Y-75034800D02*
X140769449Y-75082419D01*
X140769449Y-75082419D02*
X140531354Y-75082419D01*
X140531354Y-75082419D02*
X140436116Y-75034800D01*
X140436116Y-75034800D02*
X140388497Y-74987180D01*
X139888496Y-130582419D02*
X139317068Y-130582419D01*
X139602782Y-130582419D02*
X139602782Y-129582419D01*
X139602782Y-129582419D02*
X139507544Y-129725276D01*
X139507544Y-129725276D02*
X139412306Y-129820514D01*
X139412306Y-129820514D02*
X139317068Y-129868133D01*
X140364687Y-130582419D02*
X140555163Y-130582419D01*
X140555163Y-130582419D02*
X140650401Y-130534800D01*
X140650401Y-130534800D02*
X140698020Y-130487180D01*
X140698020Y-130487180D02*
X140793258Y-130344323D01*
X140793258Y-130344323D02*
X140840877Y-130153847D01*
X140840877Y-130153847D02*
X140840877Y-129772895D01*
X140840877Y-129772895D02*
X140793258Y-129677657D01*
X140793258Y-129677657D02*
X140745639Y-129630038D01*
X140745639Y-129630038D02*
X140650401Y-129582419D01*
X140650401Y-129582419D02*
X140459925Y-129582419D01*
X140459925Y-129582419D02*
X140364687Y-129630038D01*
X140364687Y-129630038D02*
X140317068Y-129677657D01*
X140317068Y-129677657D02*
X140269449Y-129772895D01*
X140269449Y-129772895D02*
X140269449Y-130010990D01*
X140269449Y-130010990D02*
X140317068Y-130106228D01*
X140317068Y-130106228D02*
X140364687Y-130153847D01*
X140364687Y-130153847D02*
X140459925Y-130201466D01*
X140459925Y-130201466D02*
X140650401Y-130201466D01*
X140650401Y-130201466D02*
X140745639Y-130153847D01*
X140745639Y-130153847D02*
X140793258Y-130106228D01*
X140793258Y-130106228D02*
X140840877Y-130010990D01*
X140055163Y-94582419D02*
X139483735Y-94582419D01*
X139769449Y-94582419D02*
X139769449Y-93582419D01*
X139769449Y-93582419D02*
X139674211Y-93725276D01*
X139674211Y-93725276D02*
X139578973Y-93820514D01*
X139578973Y-93820514D02*
X139483735Y-93868133D01*
X140674211Y-93582419D02*
X140769449Y-93582419D01*
X140769449Y-93582419D02*
X140864687Y-93630038D01*
X140864687Y-93630038D02*
X140912306Y-93677657D01*
X140912306Y-93677657D02*
X140959925Y-93772895D01*
X140959925Y-93772895D02*
X141007544Y-93963371D01*
X141007544Y-93963371D02*
X141007544Y-94201466D01*
X141007544Y-94201466D02*
X140959925Y-94391942D01*
X140959925Y-94391942D02*
X140912306Y-94487180D01*
X140912306Y-94487180D02*
X140864687Y-94534800D01*
X140864687Y-94534800D02*
X140769449Y-94582419D01*
X140769449Y-94582419D02*
X140674211Y-94582419D01*
X140674211Y-94582419D02*
X140578973Y-94534800D01*
X140578973Y-94534800D02*
X140531354Y-94487180D01*
X140531354Y-94487180D02*
X140483735Y-94391942D01*
X140483735Y-94391942D02*
X140436116Y-94201466D01*
X140436116Y-94201466D02*
X140436116Y-93963371D01*
X140436116Y-93963371D02*
X140483735Y-93772895D01*
X140483735Y-93772895D02*
X140531354Y-93677657D01*
X140531354Y-93677657D02*
X140578973Y-93630038D01*
X140578973Y-93630038D02*
X140674211Y-93582419D01*
X140269449Y-82082419D02*
X140936115Y-82082419D01*
X140936115Y-82082419D02*
X140507544Y-83082419D01*
X140436116Y-91082419D02*
X140626592Y-91082419D01*
X140626592Y-91082419D02*
X140721830Y-91034800D01*
X140721830Y-91034800D02*
X140769449Y-90987180D01*
X140769449Y-90987180D02*
X140864687Y-90844323D01*
X140864687Y-90844323D02*
X140912306Y-90653847D01*
X140912306Y-90653847D02*
X140912306Y-90272895D01*
X140912306Y-90272895D02*
X140864687Y-90177657D01*
X140864687Y-90177657D02*
X140817068Y-90130038D01*
X140817068Y-90130038D02*
X140721830Y-90082419D01*
X140721830Y-90082419D02*
X140531354Y-90082419D01*
X140531354Y-90082419D02*
X140436116Y-90130038D01*
X140436116Y-90130038D02*
X140388497Y-90177657D01*
X140388497Y-90177657D02*
X140340878Y-90272895D01*
X140340878Y-90272895D02*
X140340878Y-90510990D01*
X140340878Y-90510990D02*
X140388497Y-90606228D01*
X140388497Y-90606228D02*
X140436116Y-90653847D01*
X140436116Y-90653847D02*
X140531354Y-90701466D01*
X140531354Y-90701466D02*
X140721830Y-90701466D01*
X140721830Y-90701466D02*
X140817068Y-90653847D01*
X140817068Y-90653847D02*
X140864687Y-90606228D01*
X140864687Y-90606228D02*
X140912306Y-90510990D01*
X139959925Y-111082419D02*
X139388497Y-111082419D01*
X139674211Y-111082419D02*
X139674211Y-110082419D01*
X139674211Y-110082419D02*
X139578973Y-110225276D01*
X139578973Y-110225276D02*
X139483735Y-110320514D01*
X139483735Y-110320514D02*
X139388497Y-110368133D01*
X140817068Y-110415752D02*
X140817068Y-111082419D01*
X140578973Y-110034800D02*
X140340878Y-110749085D01*
X140340878Y-110749085D02*
X140959925Y-110749085D01*
X140293259Y-66582419D02*
X140912306Y-66582419D01*
X140912306Y-66582419D02*
X140578973Y-66963371D01*
X140578973Y-66963371D02*
X140721830Y-66963371D01*
X140721830Y-66963371D02*
X140817068Y-67010990D01*
X140817068Y-67010990D02*
X140864687Y-67058609D01*
X140864687Y-67058609D02*
X140912306Y-67153847D01*
X140912306Y-67153847D02*
X140912306Y-67391942D01*
X140912306Y-67391942D02*
X140864687Y-67487180D01*
X140864687Y-67487180D02*
X140817068Y-67534800D01*
X140817068Y-67534800D02*
X140721830Y-67582419D01*
X140721830Y-67582419D02*
X140436116Y-67582419D01*
X140436116Y-67582419D02*
X140340878Y-67534800D01*
X140340878Y-67534800D02*
X140293259Y-67487180D01*
X139983734Y-115082419D02*
X139412306Y-115082419D01*
X139698020Y-115082419D02*
X139698020Y-114082419D01*
X139698020Y-114082419D02*
X139602782Y-114225276D01*
X139602782Y-114225276D02*
X139507544Y-114320514D01*
X139507544Y-114320514D02*
X139412306Y-114368133D01*
X140888496Y-114082419D02*
X140412306Y-114082419D01*
X140412306Y-114082419D02*
X140364687Y-114558609D01*
X140364687Y-114558609D02*
X140412306Y-114510990D01*
X140412306Y-114510990D02*
X140507544Y-114463371D01*
X140507544Y-114463371D02*
X140745639Y-114463371D01*
X140745639Y-114463371D02*
X140840877Y-114510990D01*
X140840877Y-114510990D02*
X140888496Y-114558609D01*
X140888496Y-114558609D02*
X140936115Y-114653847D01*
X140936115Y-114653847D02*
X140936115Y-114891942D01*
X140936115Y-114891942D02*
X140888496Y-114987180D01*
X140888496Y-114987180D02*
X140840877Y-115034800D01*
X140840877Y-115034800D02*
X140745639Y-115082419D01*
X140745639Y-115082419D02*
X140507544Y-115082419D01*
X140507544Y-115082419D02*
X140412306Y-115034800D01*
X140412306Y-115034800D02*
X140364687Y-114987180D01*
X140031353Y-126582419D02*
X139459925Y-126582419D01*
X139745639Y-126582419D02*
X139745639Y-125582419D01*
X139745639Y-125582419D02*
X139650401Y-125725276D01*
X139650401Y-125725276D02*
X139555163Y-125820514D01*
X139555163Y-125820514D02*
X139459925Y-125868133D01*
X140602782Y-126010990D02*
X140507544Y-125963371D01*
X140507544Y-125963371D02*
X140459925Y-125915752D01*
X140459925Y-125915752D02*
X140412306Y-125820514D01*
X140412306Y-125820514D02*
X140412306Y-125772895D01*
X140412306Y-125772895D02*
X140459925Y-125677657D01*
X140459925Y-125677657D02*
X140507544Y-125630038D01*
X140507544Y-125630038D02*
X140602782Y-125582419D01*
X140602782Y-125582419D02*
X140793258Y-125582419D01*
X140793258Y-125582419D02*
X140888496Y-125630038D01*
X140888496Y-125630038D02*
X140936115Y-125677657D01*
X140936115Y-125677657D02*
X140983734Y-125772895D01*
X140983734Y-125772895D02*
X140983734Y-125820514D01*
X140983734Y-125820514D02*
X140936115Y-125915752D01*
X140936115Y-125915752D02*
X140888496Y-125963371D01*
X140888496Y-125963371D02*
X140793258Y-126010990D01*
X140793258Y-126010990D02*
X140602782Y-126010990D01*
X140602782Y-126010990D02*
X140507544Y-126058609D01*
X140507544Y-126058609D02*
X140459925Y-126106228D01*
X140459925Y-126106228D02*
X140412306Y-126201466D01*
X140412306Y-126201466D02*
X140412306Y-126391942D01*
X140412306Y-126391942D02*
X140459925Y-126487180D01*
X140459925Y-126487180D02*
X140507544Y-126534800D01*
X140507544Y-126534800D02*
X140602782Y-126582419D01*
X140602782Y-126582419D02*
X140793258Y-126582419D01*
X140793258Y-126582419D02*
X140888496Y-126534800D01*
X140888496Y-126534800D02*
X140936115Y-126487180D01*
X140936115Y-126487180D02*
X140983734Y-126391942D01*
X140983734Y-126391942D02*
X140983734Y-126201466D01*
X140983734Y-126201466D02*
X140936115Y-126106228D01*
X140936115Y-126106228D02*
X140888496Y-126058609D01*
X140888496Y-126058609D02*
X140793258Y-126010990D01*
X139412306Y-133677657D02*
X139459925Y-133630038D01*
X139459925Y-133630038D02*
X139555163Y-133582419D01*
X139555163Y-133582419D02*
X139793258Y-133582419D01*
X139793258Y-133582419D02*
X139888496Y-133630038D01*
X139888496Y-133630038D02*
X139936115Y-133677657D01*
X139936115Y-133677657D02*
X139983734Y-133772895D01*
X139983734Y-133772895D02*
X139983734Y-133868133D01*
X139983734Y-133868133D02*
X139936115Y-134010990D01*
X139936115Y-134010990D02*
X139364687Y-134582419D01*
X139364687Y-134582419D02*
X139983734Y-134582419D01*
X140602782Y-133582419D02*
X140698020Y-133582419D01*
X140698020Y-133582419D02*
X140793258Y-133630038D01*
X140793258Y-133630038D02*
X140840877Y-133677657D01*
X140840877Y-133677657D02*
X140888496Y-133772895D01*
X140888496Y-133772895D02*
X140936115Y-133963371D01*
X140936115Y-133963371D02*
X140936115Y-134201466D01*
X140936115Y-134201466D02*
X140888496Y-134391942D01*
X140888496Y-134391942D02*
X140840877Y-134487180D01*
X140840877Y-134487180D02*
X140793258Y-134534800D01*
X140793258Y-134534800D02*
X140698020Y-134582419D01*
X140698020Y-134582419D02*
X140602782Y-134582419D01*
X140602782Y-134582419D02*
X140507544Y-134534800D01*
X140507544Y-134534800D02*
X140459925Y-134487180D01*
X140459925Y-134487180D02*
X140412306Y-134391942D01*
X140412306Y-134391942D02*
X140364687Y-134201466D01*
X140364687Y-134201466D02*
X140364687Y-133963371D01*
X140364687Y-133963371D02*
X140412306Y-133772895D01*
X140412306Y-133772895D02*
X140459925Y-133677657D01*
X140459925Y-133677657D02*
X140507544Y-133630038D01*
X140507544Y-133630038D02*
X140602782Y-133582419D01*
X139888496Y-98582419D02*
X139317068Y-98582419D01*
X139602782Y-98582419D02*
X139602782Y-97582419D01*
X139602782Y-97582419D02*
X139507544Y-97725276D01*
X139507544Y-97725276D02*
X139412306Y-97820514D01*
X139412306Y-97820514D02*
X139317068Y-97868133D01*
X140840877Y-98582419D02*
X140269449Y-98582419D01*
X140555163Y-98582419D02*
X140555163Y-97582419D01*
X140555163Y-97582419D02*
X140459925Y-97725276D01*
X140459925Y-97725276D02*
X140364687Y-97820514D01*
X140364687Y-97820514D02*
X140269449Y-97868133D01*
X139459925Y-137677657D02*
X139507544Y-137630038D01*
X139507544Y-137630038D02*
X139602782Y-137582419D01*
X139602782Y-137582419D02*
X139840877Y-137582419D01*
X139840877Y-137582419D02*
X139936115Y-137630038D01*
X139936115Y-137630038D02*
X139983734Y-137677657D01*
X139983734Y-137677657D02*
X140031353Y-137772895D01*
X140031353Y-137772895D02*
X140031353Y-137868133D01*
X140031353Y-137868133D02*
X139983734Y-138010990D01*
X139983734Y-138010990D02*
X139412306Y-138582419D01*
X139412306Y-138582419D02*
X140031353Y-138582419D01*
X140983734Y-138582419D02*
X140412306Y-138582419D01*
X140698020Y-138582419D02*
X140698020Y-137582419D01*
X140698020Y-137582419D02*
X140602782Y-137725276D01*
X140602782Y-137725276D02*
X140507544Y-137820514D01*
X140507544Y-137820514D02*
X140412306Y-137868133D01*
X140078972Y-119082419D02*
X139507544Y-119082419D01*
X139793258Y-119082419D02*
X139793258Y-118082419D01*
X139793258Y-118082419D02*
X139698020Y-118225276D01*
X139698020Y-118225276D02*
X139602782Y-118320514D01*
X139602782Y-118320514D02*
X139507544Y-118368133D01*
X140936115Y-118082419D02*
X140745639Y-118082419D01*
X140745639Y-118082419D02*
X140650401Y-118130038D01*
X140650401Y-118130038D02*
X140602782Y-118177657D01*
X140602782Y-118177657D02*
X140507544Y-118320514D01*
X140507544Y-118320514D02*
X140459925Y-118510990D01*
X140459925Y-118510990D02*
X140459925Y-118891942D01*
X140459925Y-118891942D02*
X140507544Y-118987180D01*
X140507544Y-118987180D02*
X140555163Y-119034800D01*
X140555163Y-119034800D02*
X140650401Y-119082419D01*
X140650401Y-119082419D02*
X140840877Y-119082419D01*
X140840877Y-119082419D02*
X140936115Y-119034800D01*
X140936115Y-119034800D02*
X140983734Y-118987180D01*
X140983734Y-118987180D02*
X141031353Y-118891942D01*
X141031353Y-118891942D02*
X141031353Y-118653847D01*
X141031353Y-118653847D02*
X140983734Y-118558609D01*
X140983734Y-118558609D02*
X140936115Y-118510990D01*
X140936115Y-118510990D02*
X140840877Y-118463371D01*
X140840877Y-118463371D02*
X140650401Y-118463371D01*
X140650401Y-118463371D02*
X140555163Y-118510990D01*
X140555163Y-118510990D02*
X140507544Y-118558609D01*
X140507544Y-118558609D02*
X140459925Y-118653847D01*
X140817068Y-70415752D02*
X140817068Y-71082419D01*
X140578973Y-70034800D02*
X140340878Y-70749085D01*
X140340878Y-70749085D02*
X140959925Y-70749085D01*
D12*
%TO.C,REF\u002A\u002A*%
X132727822Y-143582971D02*
X131860198Y-143582971D01*
X131860198Y-140062178D01*
X132727822Y-140062178D01*
X132727822Y-143582971D01*
G36*
X132727822Y-143582971D02*
G01*
X131860198Y-143582971D01*
X131860198Y-140062178D01*
X132727822Y-140062178D01*
X132727822Y-143582971D01*
G37*
X126774848Y-139685570D02*
X126861931Y-139686189D01*
X127320891Y-140137914D01*
X127779852Y-140589639D01*
X127990471Y-140589968D01*
X128201089Y-140590297D01*
X128201089Y-140865390D01*
X128254530Y-140872478D01*
X128278888Y-140875162D01*
X128324759Y-140879687D01*
X128389405Y-140885809D01*
X128470091Y-140893288D01*
X128564081Y-140901881D01*
X128668637Y-140911346D01*
X128781025Y-140921442D01*
X128898507Y-140931926D01*
X129018348Y-140942556D01*
X129137811Y-140953091D01*
X129254159Y-140963287D01*
X129364657Y-140972905D01*
X129466569Y-140981700D01*
X129557158Y-140989432D01*
X129633687Y-140995858D01*
X129693421Y-141000737D01*
X129733624Y-141003825D01*
X129751559Y-141004883D01*
X129751644Y-141004882D01*
X129766035Y-140997173D01*
X129795748Y-140974019D01*
X129841131Y-140935105D01*
X129902529Y-140880116D01*
X129980288Y-140808736D01*
X130074754Y-140720651D01*
X130186272Y-140615546D01*
X130315188Y-140493105D01*
X130351287Y-140458690D01*
X130923416Y-139912863D01*
X131011436Y-140001119D01*
X130933758Y-140072515D01*
X130905686Y-140098634D01*
X130862274Y-140139434D01*
X130806366Y-140192223D01*
X130740808Y-140254309D01*
X130668441Y-140323000D01*
X130592112Y-140395604D01*
X130546524Y-140439040D01*
X130461119Y-140520584D01*
X130392710Y-140586496D01*
X130340053Y-140638456D01*
X130301905Y-140678145D01*
X130277020Y-140707243D01*
X130264156Y-140727431D01*
X130262068Y-140740390D01*
X130269513Y-140747800D01*
X130285246Y-140751342D01*
X130308023Y-140752697D01*
X130314239Y-140752879D01*
X130357061Y-140762297D01*
X130408819Y-140785503D01*
X130461328Y-140817864D01*
X130506403Y-140854748D01*
X130520328Y-140869507D01*
X130569047Y-140945233D01*
X130596306Y-141033692D01*
X130602773Y-141111900D01*
X130590576Y-141200532D01*
X130554813Y-141282388D01*
X130496722Y-141354836D01*
X130482262Y-141368203D01*
X130426733Y-141417082D01*
X130426733Y-142262674D01*
X130602773Y-142262674D01*
X130602773Y-142489010D01*
X130520531Y-142489010D01*
X130464386Y-142491850D01*
X130425416Y-142501393D01*
X130404219Y-142512991D01*
X130389052Y-142521277D01*
X130367062Y-142528373D01*
X130334987Y-142534748D01*
X130289569Y-142540872D01*
X130227548Y-142547216D01*
X130145662Y-142554250D01*
X130084746Y-142559066D01*
X129799343Y-142581161D01*
X130348805Y-143123565D01*
X130448228Y-143221637D01*
X130543815Y-143315784D01*
X130633810Y-143404285D01*
X130716457Y-143485420D01*
X130790001Y-143557469D01*
X130852684Y-143618712D01*
X130902752Y-143667427D01*
X130938448Y-143701896D01*
X130957995Y-143720379D01*
X130988944Y-143750743D01*
X131010530Y-143776071D01*
X131017723Y-143789695D01*
X131009297Y-143807095D01*
X130988245Y-143832460D01*
X130979671Y-143841058D01*
X130941620Y-143877514D01*
X130737658Y-143676802D01*
X130685699Y-143625596D01*
X130618820Y-143559569D01*
X130539950Y-143481618D01*
X130452014Y-143394638D01*
X130357941Y-143301526D01*
X130260658Y-143205179D01*
X130163093Y-143108492D01*
X130093145Y-143039134D01*
X129986550Y-142933703D01*
X129896307Y-142845129D01*
X129821192Y-142772281D01*
X129759986Y-142714023D01*
X129711466Y-142669225D01*
X129686129Y-142647021D01*
X129674411Y-142636751D01*
X129647599Y-142615471D01*
X129629808Y-142604251D01*
X129621570Y-142601754D01*
X129603590Y-142602700D01*
X129562892Y-142605573D01*
X129501819Y-142610187D01*
X129422713Y-142616358D01*
X129327914Y-142623898D01*
X129219767Y-142632621D01*
X129100612Y-142642343D01*
X128972791Y-142652876D01*
X128870635Y-142661365D01*
X128294674Y-142709396D01*
X128150726Y-142721401D01*
X127519158Y-143321938D01*
X126887589Y-143922475D01*
X126799315Y-143922034D01*
X126711040Y-143921592D01*
X126814666Y-143824583D01*
X126872463Y-143770291D01*
X126940368Y-143706192D01*
X127016572Y-143634016D01*
X127099269Y-143555492D01*
X127186653Y-143472349D01*
X127276915Y-143386319D01*
X127368250Y-143299130D01*
X127458849Y-143212513D01*
X127546907Y-143128197D01*
X127630615Y-143047912D01*
X127708167Y-142973387D01*
X127777757Y-142906354D01*
X127837576Y-142848541D01*
X127885818Y-142801679D01*
X127920676Y-142767496D01*
X127940343Y-142747724D01*
X127944116Y-142743390D01*
X127930992Y-142743092D01*
X127897389Y-142744731D01*
X127847880Y-142748023D01*
X127787037Y-142752682D01*
X127762732Y-142754682D01*
X127584951Y-142769577D01*
X127584951Y-142929109D01*
X127471782Y-142929109D01*
X127471782Y-142861314D01*
X127470696Y-142821662D01*
X127465454Y-142800116D01*
X127462334Y-142797480D01*
X127453081Y-142789662D01*
X127439604Y-142785442D01*
X127404627Y-142768219D01*
X127362579Y-142735138D01*
X127319356Y-142691893D01*
X127280854Y-142644174D01*
X127260801Y-142612830D01*
X127238851Y-142577123D01*
X127220967Y-142559371D01*
X127371188Y-142559371D01*
X127379254Y-142577987D01*
X127398820Y-142605183D01*
X127422944Y-142632448D01*
X127444682Y-142651267D01*
X127447508Y-142652943D01*
X127462334Y-142658616D01*
X127467856Y-142652955D01*
X127584951Y-142652955D01*
X127613243Y-142646934D01*
X127635618Y-142643863D01*
X127677717Y-142639548D01*
X127734178Y-142634488D01*
X127799635Y-142629181D01*
X127823862Y-142627344D01*
X127893421Y-142621927D01*
X127958018Y-142616459D01*
X128011548Y-142611488D01*
X128047910Y-142607561D01*
X128054509Y-142606675D01*
X128068056Y-142603334D01*
X128083914Y-142596101D01*
X128100135Y-142585805D01*
X128294674Y-142585805D01*
X128307104Y-142585273D01*
X128342110Y-142582769D01*
X128397215Y-142578496D01*
X128469943Y-142572653D01*
X128557814Y-142565443D01*
X128658351Y-142557066D01*
X128769077Y-142547723D01*
X128874205Y-142538758D01*
X128993483Y-142528602D01*
X129106080Y-142519142D01*
X129209305Y-142510596D01*
X129300473Y-142503179D01*
X129376895Y-142497108D01*
X129435883Y-142492601D01*
X129474749Y-142489873D01*
X129489844Y-142489116D01*
X129499238Y-142487935D01*
X129502966Y-142483256D01*
X129499471Y-142473276D01*
X129487199Y-142456190D01*
X129464594Y-142430196D01*
X129430100Y-142393490D01*
X129382162Y-142344267D01*
X129319224Y-142280726D01*
X129251968Y-142213305D01*
X128976477Y-141937601D01*
X128974406Y-141939533D01*
X128866295Y-142040409D01*
X128810377Y-142092768D01*
X128747948Y-142151535D01*
X128681443Y-142214385D01*
X128613298Y-142278995D01*
X128545948Y-142343042D01*
X128481828Y-142404203D01*
X128423372Y-142460153D01*
X128373018Y-142508570D01*
X128333198Y-142547130D01*
X128306350Y-142573509D01*
X128294908Y-142585384D01*
X128294674Y-142585805D01*
X128100135Y-142585805D01*
X128103861Y-142583440D01*
X128129673Y-142563811D01*
X128163129Y-142535678D01*
X128206007Y-142497502D01*
X128260083Y-142447746D01*
X128327136Y-142384871D01*
X128408943Y-142307341D01*
X128491950Y-142228251D01*
X128574094Y-142149564D01*
X128650169Y-142076112D01*
X128718325Y-142009724D01*
X128776712Y-141952227D01*
X128823481Y-141905451D01*
X128856782Y-141871224D01*
X128872222Y-141854182D01*
X129073046Y-141854182D01*
X129082170Y-141865722D01*
X129107200Y-141892710D01*
X129146052Y-141933021D01*
X129196643Y-141984529D01*
X129256888Y-142045109D01*
X129324704Y-142112636D01*
X129380565Y-142167826D01*
X129686129Y-142468724D01*
X129971555Y-142446401D01*
X130055219Y-142439669D01*
X130131727Y-142433157D01*
X130197081Y-142427234D01*
X130247281Y-142422268D01*
X130278329Y-142418629D01*
X130285273Y-142417458D01*
X130313565Y-142410838D01*
X130313565Y-141461364D01*
X130234606Y-141455026D01*
X130141315Y-141435890D01*
X130058791Y-141395846D01*
X129990038Y-141337418D01*
X129938063Y-141263129D01*
X129906863Y-141179748D01*
X129892228Y-141152698D01*
X129860819Y-141139156D01*
X129859434Y-141138872D01*
X129846174Y-141137247D01*
X129832595Y-141139256D01*
X129816181Y-141146858D01*
X129794411Y-141162016D01*
X129764767Y-141186688D01*
X129724732Y-141222836D01*
X129671785Y-141272420D01*
X129603409Y-141337401D01*
X129599005Y-141341599D01*
X129525611Y-141411493D01*
X129447437Y-141485800D01*
X129369864Y-141559414D01*
X129298275Y-141627229D01*
X129238051Y-141684140D01*
X129224587Y-141696832D01*
X129173820Y-141745487D01*
X129130375Y-141788709D01*
X129097241Y-141823395D01*
X129077405Y-141846444D01*
X129073046Y-141854182D01*
X128872222Y-141854182D01*
X128874767Y-141851373D01*
X128877442Y-141847140D01*
X128867741Y-141836003D01*
X128842441Y-141809971D01*
X128804082Y-141771570D01*
X128755200Y-141723328D01*
X128698334Y-141667770D01*
X128656906Y-141627592D01*
X128440000Y-141417831D01*
X128440000Y-142036337D01*
X128201089Y-142036337D01*
X128201089Y-141281881D01*
X128307542Y-141281881D01*
X128169654Y-141143565D01*
X128071840Y-141045447D01*
X128031766Y-141005248D01*
X127908952Y-141005248D01*
X127852450Y-141004863D01*
X127816505Y-141003100D01*
X127796530Y-140999050D01*
X127793438Y-140996442D01*
X128205703Y-140996442D01*
X128212854Y-141006334D01*
X128235841Y-141031524D01*
X128272439Y-141069810D01*
X128320422Y-141118989D01*
X128377566Y-141176861D01*
X128441647Y-141241222D01*
X128510438Y-141309871D01*
X128581716Y-141380605D01*
X128653255Y-141451222D01*
X128722830Y-141519520D01*
X128788217Y-141583296D01*
X128847191Y-141640350D01*
X128897527Y-141688478D01*
X128936999Y-141725478D01*
X128963383Y-141749148D01*
X128974406Y-141757290D01*
X128985780Y-141748984D01*
X129012563Y-141725733D01*
X129052292Y-141689865D01*
X129102507Y-141643713D01*
X129160746Y-141589606D01*
X129224547Y-141529874D01*
X129291449Y-141466848D01*
X129358990Y-141402858D01*
X129424710Y-141340236D01*
X129486146Y-141281310D01*
X129540837Y-141228412D01*
X129586322Y-141183872D01*
X129620138Y-141150020D01*
X129639826Y-141129188D01*
X129643837Y-141123506D01*
X129630891Y-141121634D01*
X129595134Y-141117746D01*
X129538804Y-141112057D01*
X129464140Y-141104781D01*
X129373380Y-141096131D01*
X129268762Y-141086322D01*
X129152526Y-141075566D01*
X129026908Y-141064079D01*
X128925618Y-141054907D01*
X128794279Y-141043174D01*
X128670552Y-141032335D01*
X128556681Y-141022570D01*
X128454911Y-141014063D01*
X128367487Y-141006995D01*
X128296653Y-141001549D01*
X128244653Y-140997908D01*
X128213732Y-140996253D01*
X128205703Y-140996442D01*
X127793438Y-140996442D01*
X127787937Y-140991801D01*
X127786139Y-140980870D01*
X127783498Y-140968712D01*
X127772912Y-140959727D01*
X127750381Y-140952826D01*
X127711909Y-140946924D01*
X127653498Y-140940935D01*
X127632104Y-140939013D01*
X127584951Y-140934852D01*
X127584951Y-142652955D01*
X127467856Y-142652955D01*
X127469462Y-142651308D01*
X127471662Y-142625993D01*
X127471782Y-142608908D01*
X127471782Y-142551881D01*
X127421485Y-142551881D01*
X127389976Y-142553544D01*
X127372463Y-142557697D01*
X127371188Y-142559371D01*
X127220967Y-142559371D01*
X127220411Y-142558819D01*
X127198668Y-142552388D01*
X127185718Y-142551894D01*
X127182575Y-142551894D01*
X127144852Y-142551881D01*
X127144852Y-142446048D01*
X127146029Y-142397355D01*
X127149165Y-142359405D01*
X127153671Y-142338308D01*
X127155495Y-142336023D01*
X127158295Y-142322641D01*
X127157148Y-142290074D01*
X127152393Y-142243916D01*
X127148003Y-142212376D01*
X127139378Y-142155188D01*
X127131591Y-142102886D01*
X127125847Y-142063582D01*
X127124215Y-142052055D01*
X127114888Y-142021937D01*
X127100272Y-142011188D01*
X127242893Y-142011188D01*
X127251496Y-142096065D01*
X127258756Y-142155368D01*
X127268379Y-142218551D01*
X127275252Y-142256386D01*
X127290407Y-142331832D01*
X127381095Y-142335526D01*
X127471782Y-142339221D01*
X127471782Y-140924698D01*
X127422786Y-140972542D01*
X127362324Y-141046850D01*
X127315691Y-141138816D01*
X127282249Y-141249998D01*
X127263753Y-141360471D01*
X127255122Y-141432773D01*
X127346040Y-141432773D01*
X127346040Y-142011188D01*
X127242893Y-142011188D01*
X127100272Y-142011188D01*
X127094320Y-142007920D01*
X127089778Y-141996230D01*
X127086470Y-141973288D01*
X127084215Y-141936265D01*
X127083558Y-141910594D01*
X127182575Y-141910594D01*
X127245446Y-141910594D01*
X127245446Y-141533367D01*
X127182575Y-141533367D01*
X127182575Y-141910594D01*
X127083558Y-141910594D01*
X127082834Y-141882332D01*
X127082150Y-141808660D01*
X127081980Y-141721980D01*
X127082077Y-141629471D01*
X127082530Y-141559094D01*
X127083590Y-141507836D01*
X127085503Y-141472680D01*
X127088519Y-141450611D01*
X127092885Y-141438615D01*
X127098849Y-141433676D01*
X127105784Y-141432773D01*
X127127795Y-141425079D01*
X127140321Y-141399879D01*
X127144788Y-141353991D01*
X127144852Y-141345736D01*
X127152868Y-141268027D01*
X127174936Y-141179767D01*
X127208084Y-141088915D01*
X127249339Y-141003430D01*
X127295731Y-140931274D01*
X127303082Y-140921928D01*
X127326998Y-140891467D01*
X127336576Y-140873428D01*
X127333480Y-140860831D01*
X127320704Y-140847900D01*
X127295678Y-140809707D01*
X127286071Y-140760002D01*
X127291067Y-140706476D01*
X127309851Y-140656822D01*
X127341606Y-140618733D01*
X127345297Y-140615975D01*
X127404575Y-140587474D01*
X127465934Y-140582172D01*
X127524427Y-140599482D01*
X127575104Y-140638820D01*
X127579289Y-140643630D01*
X127599167Y-140671560D01*
X127607921Y-140699898D01*
X127608553Y-140739737D01*
X127607992Y-140749689D01*
X127606562Y-140788668D01*
X127609839Y-140808746D01*
X127619728Y-140816015D01*
X127628961Y-140816760D01*
X127655744Y-140818284D01*
X127696025Y-140822065D01*
X127720124Y-140824782D01*
X127758401Y-140828723D01*
X127777996Y-140827084D01*
X127785158Y-140817579D01*
X127786139Y-140800649D01*
X127782901Y-140790608D01*
X127772420Y-140774410D01*
X127753548Y-140750855D01*
X127725135Y-140718743D01*
X127699126Y-140690891D01*
X127881172Y-140690891D01*
X127962179Y-140772624D01*
X128011428Y-140818730D01*
X128049159Y-140846306D01*
X128071840Y-140854357D01*
X128087270Y-140852529D01*
X128095867Y-140843277D01*
X128099613Y-140820950D01*
X128100489Y-140779895D01*
X128100495Y-140772624D01*
X128100495Y-140690891D01*
X127881172Y-140690891D01*
X127699126Y-140690891D01*
X127686035Y-140676872D01*
X127635097Y-140624043D01*
X127571173Y-140559055D01*
X127493114Y-140480709D01*
X127399772Y-140387803D01*
X127289998Y-140279137D01*
X127236952Y-140226769D01*
X126687767Y-139684951D01*
X126774848Y-139685570D01*
G36*
X126774848Y-139685570D02*
G01*
X126861931Y-139686189D01*
X127320891Y-140137914D01*
X127779852Y-140589639D01*
X127990471Y-140589968D01*
X128201089Y-140590297D01*
X128201089Y-140865390D01*
X128254530Y-140872478D01*
X128278888Y-140875162D01*
X128324759Y-140879687D01*
X128389405Y-140885809D01*
X128470091Y-140893288D01*
X128564081Y-140901881D01*
X128668637Y-140911346D01*
X128781025Y-140921442D01*
X128898507Y-140931926D01*
X129018348Y-140942556D01*
X129137811Y-140953091D01*
X129254159Y-140963287D01*
X129364657Y-140972905D01*
X129466569Y-140981700D01*
X129557158Y-140989432D01*
X129633687Y-140995858D01*
X129693421Y-141000737D01*
X129733624Y-141003825D01*
X129751559Y-141004883D01*
X129751644Y-141004882D01*
X129766035Y-140997173D01*
X129795748Y-140974019D01*
X129841131Y-140935105D01*
X129902529Y-140880116D01*
X129980288Y-140808736D01*
X130074754Y-140720651D01*
X130186272Y-140615546D01*
X130315188Y-140493105D01*
X130351287Y-140458690D01*
X130923416Y-139912863D01*
X131011436Y-140001119D01*
X130933758Y-140072515D01*
X130905686Y-140098634D01*
X130862274Y-140139434D01*
X130806366Y-140192223D01*
X130740808Y-140254309D01*
X130668441Y-140323000D01*
X130592112Y-140395604D01*
X130546524Y-140439040D01*
X130461119Y-140520584D01*
X130392710Y-140586496D01*
X130340053Y-140638456D01*
X130301905Y-140678145D01*
X130277020Y-140707243D01*
X130264156Y-140727431D01*
X130262068Y-140740390D01*
X130269513Y-140747800D01*
X130285246Y-140751342D01*
X130308023Y-140752697D01*
X130314239Y-140752879D01*
X130357061Y-140762297D01*
X130408819Y-140785503D01*
X130461328Y-140817864D01*
X130506403Y-140854748D01*
X130520328Y-140869507D01*
X130569047Y-140945233D01*
X130596306Y-141033692D01*
X130602773Y-141111900D01*
X130590576Y-141200532D01*
X130554813Y-141282388D01*
X130496722Y-141354836D01*
X130482262Y-141368203D01*
X130426733Y-141417082D01*
X130426733Y-142262674D01*
X130602773Y-142262674D01*
X130602773Y-142489010D01*
X130520531Y-142489010D01*
X130464386Y-142491850D01*
X130425416Y-142501393D01*
X130404219Y-142512991D01*
X130389052Y-142521277D01*
X130367062Y-142528373D01*
X130334987Y-142534748D01*
X130289569Y-142540872D01*
X130227548Y-142547216D01*
X130145662Y-142554250D01*
X130084746Y-142559066D01*
X129799343Y-142581161D01*
X130348805Y-143123565D01*
X130448228Y-143221637D01*
X130543815Y-143315784D01*
X130633810Y-143404285D01*
X130716457Y-143485420D01*
X130790001Y-143557469D01*
X130852684Y-143618712D01*
X130902752Y-143667427D01*
X130938448Y-143701896D01*
X130957995Y-143720379D01*
X130988944Y-143750743D01*
X131010530Y-143776071D01*
X131017723Y-143789695D01*
X131009297Y-143807095D01*
X130988245Y-143832460D01*
X130979671Y-143841058D01*
X130941620Y-143877514D01*
X130737658Y-143676802D01*
X130685699Y-143625596D01*
X130618820Y-143559569D01*
X130539950Y-143481618D01*
X130452014Y-143394638D01*
X130357941Y-143301526D01*
X130260658Y-143205179D01*
X130163093Y-143108492D01*
X130093145Y-143039134D01*
X129986550Y-142933703D01*
X129896307Y-142845129D01*
X129821192Y-142772281D01*
X129759986Y-142714023D01*
X129711466Y-142669225D01*
X129686129Y-142647021D01*
X129674411Y-142636751D01*
X129647599Y-142615471D01*
X129629808Y-142604251D01*
X129621570Y-142601754D01*
X129603590Y-142602700D01*
X129562892Y-142605573D01*
X129501819Y-142610187D01*
X129422713Y-142616358D01*
X129327914Y-142623898D01*
X129219767Y-142632621D01*
X129100612Y-142642343D01*
X128972791Y-142652876D01*
X128870635Y-142661365D01*
X128294674Y-142709396D01*
X128150726Y-142721401D01*
X127519158Y-143321938D01*
X126887589Y-143922475D01*
X126799315Y-143922034D01*
X126711040Y-143921592D01*
X126814666Y-143824583D01*
X126872463Y-143770291D01*
X126940368Y-143706192D01*
X127016572Y-143634016D01*
X127099269Y-143555492D01*
X127186653Y-143472349D01*
X127276915Y-143386319D01*
X127368250Y-143299130D01*
X127458849Y-143212513D01*
X127546907Y-143128197D01*
X127630615Y-143047912D01*
X127708167Y-142973387D01*
X127777757Y-142906354D01*
X127837576Y-142848541D01*
X127885818Y-142801679D01*
X127920676Y-142767496D01*
X127940343Y-142747724D01*
X127944116Y-142743390D01*
X127930992Y-142743092D01*
X127897389Y-142744731D01*
X127847880Y-142748023D01*
X127787037Y-142752682D01*
X127762732Y-142754682D01*
X127584951Y-142769577D01*
X127584951Y-142929109D01*
X127471782Y-142929109D01*
X127471782Y-142861314D01*
X127470696Y-142821662D01*
X127465454Y-142800116D01*
X127462334Y-142797480D01*
X127453081Y-142789662D01*
X127439604Y-142785442D01*
X127404627Y-142768219D01*
X127362579Y-142735138D01*
X127319356Y-142691893D01*
X127280854Y-142644174D01*
X127260801Y-142612830D01*
X127238851Y-142577123D01*
X127220967Y-142559371D01*
X127371188Y-142559371D01*
X127379254Y-142577987D01*
X127398820Y-142605183D01*
X127422944Y-142632448D01*
X127444682Y-142651267D01*
X127447508Y-142652943D01*
X127462334Y-142658616D01*
X127467856Y-142652955D01*
X127584951Y-142652955D01*
X127613243Y-142646934D01*
X127635618Y-142643863D01*
X127677717Y-142639548D01*
X127734178Y-142634488D01*
X127799635Y-142629181D01*
X127823862Y-142627344D01*
X127893421Y-142621927D01*
X127958018Y-142616459D01*
X128011548Y-142611488D01*
X128047910Y-142607561D01*
X128054509Y-142606675D01*
X128068056Y-142603334D01*
X128083914Y-142596101D01*
X128100135Y-142585805D01*
X128294674Y-142585805D01*
X128307104Y-142585273D01*
X128342110Y-142582769D01*
X128397215Y-142578496D01*
X128469943Y-142572653D01*
X128557814Y-142565443D01*
X128658351Y-142557066D01*
X128769077Y-142547723D01*
X128874205Y-142538758D01*
X128993483Y-142528602D01*
X129106080Y-142519142D01*
X129209305Y-142510596D01*
X129300473Y-142503179D01*
X129376895Y-142497108D01*
X129435883Y-142492601D01*
X129474749Y-142489873D01*
X129489844Y-142489116D01*
X129499238Y-142487935D01*
X129502966Y-142483256D01*
X129499471Y-142473276D01*
X129487199Y-142456190D01*
X129464594Y-142430196D01*
X129430100Y-142393490D01*
X129382162Y-142344267D01*
X129319224Y-142280726D01*
X129251968Y-142213305D01*
X128976477Y-141937601D01*
X128974406Y-141939533D01*
X128866295Y-142040409D01*
X128810377Y-142092768D01*
X128747948Y-142151535D01*
X128681443Y-142214385D01*
X128613298Y-142278995D01*
X128545948Y-142343042D01*
X128481828Y-142404203D01*
X128423372Y-142460153D01*
X128373018Y-142508570D01*
X128333198Y-142547130D01*
X128306350Y-142573509D01*
X128294908Y-142585384D01*
X128294674Y-142585805D01*
X128100135Y-142585805D01*
X128103861Y-142583440D01*
X128129673Y-142563811D01*
X128163129Y-142535678D01*
X128206007Y-142497502D01*
X128260083Y-142447746D01*
X128327136Y-142384871D01*
X128408943Y-142307341D01*
X128491950Y-142228251D01*
X128574094Y-142149564D01*
X128650169Y-142076112D01*
X128718325Y-142009724D01*
X128776712Y-141952227D01*
X128823481Y-141905451D01*
X128856782Y-141871224D01*
X128872222Y-141854182D01*
X129073046Y-141854182D01*
X129082170Y-141865722D01*
X129107200Y-141892710D01*
X129146052Y-141933021D01*
X129196643Y-141984529D01*
X129256888Y-142045109D01*
X129324704Y-142112636D01*
X129380565Y-142167826D01*
X129686129Y-142468724D01*
X129971555Y-142446401D01*
X130055219Y-142439669D01*
X130131727Y-142433157D01*
X130197081Y-142427234D01*
X130247281Y-142422268D01*
X130278329Y-142418629D01*
X130285273Y-142417458D01*
X130313565Y-142410838D01*
X130313565Y-141461364D01*
X130234606Y-141455026D01*
X130141315Y-141435890D01*
X130058791Y-141395846D01*
X129990038Y-141337418D01*
X129938063Y-141263129D01*
X129906863Y-141179748D01*
X129892228Y-141152698D01*
X129860819Y-141139156D01*
X129859434Y-141138872D01*
X129846174Y-141137247D01*
X129832595Y-141139256D01*
X129816181Y-141146858D01*
X129794411Y-141162016D01*
X129764767Y-141186688D01*
X129724732Y-141222836D01*
X129671785Y-141272420D01*
X129603409Y-141337401D01*
X129599005Y-141341599D01*
X129525611Y-141411493D01*
X129447437Y-141485800D01*
X129369864Y-141559414D01*
X129298275Y-141627229D01*
X129238051Y-141684140D01*
X129224587Y-141696832D01*
X129173820Y-141745487D01*
X129130375Y-141788709D01*
X129097241Y-141823395D01*
X129077405Y-141846444D01*
X129073046Y-141854182D01*
X128872222Y-141854182D01*
X128874767Y-141851373D01*
X128877442Y-141847140D01*
X128867741Y-141836003D01*
X128842441Y-141809971D01*
X128804082Y-141771570D01*
X128755200Y-141723328D01*
X128698334Y-141667770D01*
X128656906Y-141627592D01*
X128440000Y-141417831D01*
X128440000Y-142036337D01*
X128201089Y-142036337D01*
X128201089Y-141281881D01*
X128307542Y-141281881D01*
X128169654Y-141143565D01*
X128071840Y-141045447D01*
X128031766Y-141005248D01*
X127908952Y-141005248D01*
X127852450Y-141004863D01*
X127816505Y-141003100D01*
X127796530Y-140999050D01*
X127793438Y-140996442D01*
X128205703Y-140996442D01*
X128212854Y-141006334D01*
X128235841Y-141031524D01*
X128272439Y-141069810D01*
X128320422Y-141118989D01*
X128377566Y-141176861D01*
X128441647Y-141241222D01*
X128510438Y-141309871D01*
X128581716Y-141380605D01*
X128653255Y-141451222D01*
X128722830Y-141519520D01*
X128788217Y-141583296D01*
X128847191Y-141640350D01*
X128897527Y-141688478D01*
X128936999Y-141725478D01*
X128963383Y-141749148D01*
X128974406Y-141757290D01*
X128985780Y-141748984D01*
X129012563Y-141725733D01*
X129052292Y-141689865D01*
X129102507Y-141643713D01*
X129160746Y-141589606D01*
X129224547Y-141529874D01*
X129291449Y-141466848D01*
X129358990Y-141402858D01*
X129424710Y-141340236D01*
X129486146Y-141281310D01*
X129540837Y-141228412D01*
X129586322Y-141183872D01*
X129620138Y-141150020D01*
X129639826Y-141129188D01*
X129643837Y-141123506D01*
X129630891Y-141121634D01*
X129595134Y-141117746D01*
X129538804Y-141112057D01*
X129464140Y-141104781D01*
X129373380Y-141096131D01*
X129268762Y-141086322D01*
X129152526Y-141075566D01*
X129026908Y-141064079D01*
X128925618Y-141054907D01*
X128794279Y-141043174D01*
X128670552Y-141032335D01*
X128556681Y-141022570D01*
X128454911Y-141014063D01*
X128367487Y-141006995D01*
X128296653Y-141001549D01*
X128244653Y-140997908D01*
X128213732Y-140996253D01*
X128205703Y-140996442D01*
X127793438Y-140996442D01*
X127787937Y-140991801D01*
X127786139Y-140980870D01*
X127783498Y-140968712D01*
X127772912Y-140959727D01*
X127750381Y-140952826D01*
X127711909Y-140946924D01*
X127653498Y-140940935D01*
X127632104Y-140939013D01*
X127584951Y-140934852D01*
X127584951Y-142652955D01*
X127467856Y-142652955D01*
X127469462Y-142651308D01*
X127471662Y-142625993D01*
X127471782Y-142608908D01*
X127471782Y-142551881D01*
X127421485Y-142551881D01*
X127389976Y-142553544D01*
X127372463Y-142557697D01*
X127371188Y-142559371D01*
X127220967Y-142559371D01*
X127220411Y-142558819D01*
X127198668Y-142552388D01*
X127185718Y-142551894D01*
X127182575Y-142551894D01*
X127144852Y-142551881D01*
X127144852Y-142446048D01*
X127146029Y-142397355D01*
X127149165Y-142359405D01*
X127153671Y-142338308D01*
X127155495Y-142336023D01*
X127158295Y-142322641D01*
X127157148Y-142290074D01*
X127152393Y-142243916D01*
X127148003Y-142212376D01*
X127139378Y-142155188D01*
X127131591Y-142102886D01*
X127125847Y-142063582D01*
X127124215Y-142052055D01*
X127114888Y-142021937D01*
X127100272Y-142011188D01*
X127242893Y-142011188D01*
X127251496Y-142096065D01*
X127258756Y-142155368D01*
X127268379Y-142218551D01*
X127275252Y-142256386D01*
X127290407Y-142331832D01*
X127381095Y-142335526D01*
X127471782Y-142339221D01*
X127471782Y-140924698D01*
X127422786Y-140972542D01*
X127362324Y-141046850D01*
X127315691Y-141138816D01*
X127282249Y-141249998D01*
X127263753Y-141360471D01*
X127255122Y-141432773D01*
X127346040Y-141432773D01*
X127346040Y-142011188D01*
X127242893Y-142011188D01*
X127100272Y-142011188D01*
X127094320Y-142007920D01*
X127089778Y-141996230D01*
X127086470Y-141973288D01*
X127084215Y-141936265D01*
X127083558Y-141910594D01*
X127182575Y-141910594D01*
X127245446Y-141910594D01*
X127245446Y-141533367D01*
X127182575Y-141533367D01*
X127182575Y-141910594D01*
X127083558Y-141910594D01*
X127082834Y-141882332D01*
X127082150Y-141808660D01*
X127081980Y-141721980D01*
X127082077Y-141629471D01*
X127082530Y-141559094D01*
X127083590Y-141507836D01*
X127085503Y-141472680D01*
X127088519Y-141450611D01*
X127092885Y-141438615D01*
X127098849Y-141433676D01*
X127105784Y-141432773D01*
X127127795Y-141425079D01*
X127140321Y-141399879D01*
X127144788Y-141353991D01*
X127144852Y-141345736D01*
X127152868Y-141268027D01*
X127174936Y-141179767D01*
X127208084Y-141088915D01*
X127249339Y-141003430D01*
X127295731Y-140931274D01*
X127303082Y-140921928D01*
X127326998Y-140891467D01*
X127336576Y-140873428D01*
X127333480Y-140860831D01*
X127320704Y-140847900D01*
X127295678Y-140809707D01*
X127286071Y-140760002D01*
X127291067Y-140706476D01*
X127309851Y-140656822D01*
X127341606Y-140618733D01*
X127345297Y-140615975D01*
X127404575Y-140587474D01*
X127465934Y-140582172D01*
X127524427Y-140599482D01*
X127575104Y-140638820D01*
X127579289Y-140643630D01*
X127599167Y-140671560D01*
X127607921Y-140699898D01*
X127608553Y-140739737D01*
X127607992Y-140749689D01*
X127606562Y-140788668D01*
X127609839Y-140808746D01*
X127619728Y-140816015D01*
X127628961Y-140816760D01*
X127655744Y-140818284D01*
X127696025Y-140822065D01*
X127720124Y-140824782D01*
X127758401Y-140828723D01*
X127777996Y-140827084D01*
X127785158Y-140817579D01*
X127786139Y-140800649D01*
X127782901Y-140790608D01*
X127772420Y-140774410D01*
X127753548Y-140750855D01*
X127725135Y-140718743D01*
X127699126Y-140690891D01*
X127881172Y-140690891D01*
X127962179Y-140772624D01*
X128011428Y-140818730D01*
X128049159Y-140846306D01*
X128071840Y-140854357D01*
X128087270Y-140852529D01*
X128095867Y-140843277D01*
X128099613Y-140820950D01*
X128100489Y-140779895D01*
X128100495Y-140772624D01*
X128100495Y-140690891D01*
X127881172Y-140690891D01*
X127699126Y-140690891D01*
X127686035Y-140676872D01*
X127635097Y-140624043D01*
X127571173Y-140559055D01*
X127493114Y-140480709D01*
X127399772Y-140387803D01*
X127289998Y-140279137D01*
X127236952Y-140226769D01*
X126687767Y-139684951D01*
X126774848Y-139685570D01*
G37*
%TD*%
M02*
